<?xml version="1.0" encoding="UTF-8" standalone="no"?>
<!-- Created with Inkscape (http://www.inkscape.org/) -->

<svg
   width="297mm"
   height="136mm"
   viewBox="0 0 297 136"
   version="1.1"
   id="svg1"
   xml:space="preserve"
   inkscape:version="1.3.2 (091e20e, 2023-11-25, custom)"
   sodipodi:docname="end-of-page.svg"
   xmlns:inkscape="http://www.inkscape.org/namespaces/inkscape"
   xmlns:sodipodi="http://sodipodi.sourceforge.net/DTD/sodipodi-0.dtd"
   xmlns:xlink="http://www.w3.org/1999/xlink"
   xmlns="http://www.w3.org/2000/svg"
   xmlns:svg="http://www.w3.org/2000/svg"><sodipodi:namedview
     id="namedview1"
     pagecolor="#ffffff"
     bordercolor="#ffffff"
     borderopacity="1"
     inkscape:showpageshadow="0"
     inkscape:pageopacity="0"
     inkscape:pagecheckerboard="1"
     inkscape:deskcolor="#d1d1d1"
     inkscape:document-units="mm"
     inkscape:zoom="0.72159091"
     inkscape:cx="396.34646"
     inkscape:cy="561.25984"
     inkscape:window-width="1920"
     inkscape:window-height="1002"
     inkscape:window-x="-8"
     inkscape:window-y="-8"
     inkscape:window-maximized="1"
     inkscape:current-layer="layer1" /><defs
     id="defs1"><inkscape:path-effect
       effect="spiro"
       id="path-effect3"
       is_visible="true"
       lpeversion="1" /><clipPath
       clipPathUnits="userSpaceOnUse"
       id="clipPath1"><path
         style="fill:none;stroke:#000000;stroke-width:0.264583px;stroke-linecap:butt;stroke-linejoin:miter;stroke-opacity:1"
         d="m 173.43333,187.73333 c 13.77599,4.92119 26.94275,-40.28019 8.06666,-47.3 C 184.56523,129.54626 169.4,124.66666 169.4,124.66666 L 195.06666,107.06667 184.8,91.300001 l -38.86667,8.433332 -89.099997,30.433327 11,55.36667 L 145.93333,211.2 Z"
         id="path2"
         sodipodi:nodetypes="cccccccccc" /></clipPath><clipPath
       clipPathUnits="userSpaceOnUse"
       id="clipPath40"><path
         style="fill:#000000;stroke-width:1"
         d="m 179.73245,103.89271 c -0.0241,-0.0172 -9.50938,-0.11147 -21.07828,-0.20952 -11.56891,-0.0981 -23.29657,-0.22843 -26.06146,-0.28972 -2.7649,-0.0613 -11.51599,-0.17971 -19.44688,-0.26315 -7.93088,-0.0834 -15.9676,-0.20272 -17.85937,-0.26506 -1.891771,-0.0623 -10.285675,-0.18402 -18.653123,-0.2704 -13.722141,-0.14165 -17.264007,-0.24968 -17.751835,-0.54142 -0.457226,-0.27345 -5.370489,-1.18906 -5.700673,-1.06236 -0.246226,0.0945 -0.319159,0.0382 -0.200067,-0.15454 0.128609,-0.2081 1.96e-4,-0.25427 -0.409305,-0.14719 -0.328192,0.0858 -0.522626,0.082 -0.432078,-0.009 0.09055,-0.0906 -1.713375,-0.61753 -4.008723,-1.171069 -2.295348,-0.553543 -4.976112,-1.258387 -5.95725,-1.566323 -0.981141,-0.307938 -1.989542,-0.48097 -2.240894,-0.384516 -0.251351,0.09645 -0.372369,0.09073 -0.268925,-0.0127 0.103441,-0.103442 0.07503,-0.324292 -0.06314,-0.490773 -0.434986,-0.524124 -0.01082,-1.40371 0.742751,-1.540227 3.443195,-0.623766 6.124168,-1.732447 6.13169,-2.535674 0.0035,-0.373732 0.038,-0.378894 0.253566,-0.03793 0.195469,0.309179 0.309687,0.323985 0.52732,0.06835 0.152792,-0.179472 0.198472,-0.268806 0.101507,-0.198522 -0.09696,0.07028 -0.306316,0.03153 -0.465227,-0.08613 -0.158909,-0.117655 -1.0033,-0.443534 -1.876425,-0.72418 -0.873125,-0.280644 -1.647034,-0.579443 -1.719792,-0.663996 -0.07276,-0.08455 -1.02526,-0.367657 -2.116666,-0.629116 -2.937333,-0.70367 -3.2252,-0.844965 -3.127201,-1.534935 0.10913,-0.76836 1.71545,-1.564658 3.502597,-1.736336 0.739417,-0.07103 1.466445,-0.296018 1.615617,-0.499972 0.261371,-0.357352 2.175343,-0.880314 9.988555,-2.729209 2.004859,-0.474425 3.584036,-0.923751 3.509283,-0.998503 -0.579469,-0.579467 1.689491,-1.393569 3.692109,-1.324724 1.164897,0.04005 9.916589,-0.08136 19.448204,-0.269783 23.876775,-0.472006 80.663405,-1.037502 94.179595,-0.937865 4.22084,0.03111 4.81474,-0.01373 4.3812,-0.33073 -0.27584,-0.201697 -0.64503,-0.366723 -0.82042,-0.366723 -0.40641,0 -1.96121,-1.757704 -1.96121,-2.217158 0,-0.85671 0.96794,-1.284274 3.70416,-1.636212 0.65485,-0.08423 2.73844,-0.375857 4.63021,-0.648065 3.78579,-0.544738 7.08511,-0.885016 12.7,-1.309823 2.03729,-0.154135 5.25198,-0.401145 7.14375,-0.54891 13.21289,-1.032057 34.23303,-0.31632 37.00041,1.259864 1.08975,0.620681 2.27339,2.979298 2.47489,4.931709 l 0.15394,1.491512 1.48434,0.0046 c 1.23367,0.0038 2.92566,0.268382 5.31045,0.83036 0.2126,0.0501 0.51025,0.184579 0.66146,0.29885 0.15121,0.114271 0.83004,0.551516 1.50851,0.971658 0.77933,0.482592 1.50645,1.23425 1.97457,2.041192 0.40754,0.702516 0.80492,1.307039 0.88308,1.343382 0.19757,0.09187 -0.098,4.628266 -0.32544,4.994788 -0.1026,0.165333 0.21871,0.72658 0.72059,1.258732 2.22139,2.355357 1.17778,5.972701 -2.21984,7.694417 -2.72026,1.37846 -5.94261,1.77568 -18.27384,2.25272 -3.8563,0.14918 -8.32114,0.32909 -9.92187,0.39979 -4.11531,0.18177 -45.27553,0.63457 -45.46442,0.50015 z m 60.00481,-23.43223 c -0.43956,-1.410216 -0.65172,-1.786655 -1.16037,-2.058879 -2.48571,-1.330312 -23.53197,-1.203283 -44.19624,0.266755 -3.99757,0.284382 -7.28786,0.517059 -7.31176,0.517059 -0.0239,0 -0.21888,0.267891 -0.43329,0.595313 l -0.38983,0.595312 19.60784,0.04924 c 10.78431,0.02708 21.69144,0.147098 24.23805,0.266705 2.54662,0.119608 5.8017,0.254511 7.23353,0.299784 l 2.60333,0.08232 z"
         id="path41" /></clipPath></defs><g
     inkscape:label="Layer 1"
     inkscape:groupmode="layer"
     id="layer1"><image
       width="270.93332"
       height="270.93332"
       preserveAspectRatio="none"
       style="image-rendering:optimizeQuality"
       xlink:href="Gemini_Generated_Image_5mnt05mnt05mnt05.png"
       id="image1"
       x="11.016673"
       y="-49.66666"
       clip-path="url(#clipPath40)" /></g></svg>
