<?xml version="1.0" encoding="UTF-8" standalone="no"?>
<!-- Created with Inkscape (http://www.inkscape.org/) -->

<svg
   width="47.095779mm"
   height="47.442986mm"
   viewBox="0 0 47.095778 47.442984"
   version="1.1"
   id="svg1"
   xml:space="preserve"
   inkscape:version="1.3.2 (091e20e, 2023-11-25, custom)"
   sodipodi:docname="gifts.svg"
   inkscape:export-filename="..\src\pages\phone-illustration.png"
   inkscape:export-xdpi="30.9677"
   inkscape:export-ydpi="30.9677"
   xmlns:inkscape="http://www.inkscape.org/namespaces/inkscape"
   xmlns:sodipodi="http://sodipodi.sourceforge.net/DTD/sodipodi-0.dtd"
   xmlns:xlink="http://www.w3.org/1999/xlink"
   xmlns="http://www.w3.org/2000/svg"
   xmlns:svg="http://www.w3.org/2000/svg"><sodipodi:namedview
     id="namedview1"
     pagecolor="#505050"
     bordercolor="#ffffff"
     borderopacity="1"
     inkscape:showpageshadow="0"
     inkscape:pageopacity="0"
     inkscape:pagecheckerboard="1"
     inkscape:deskcolor="#d1d1d1"
     inkscape:document-units="mm"
     inkscape:zoom="0.51152032"
     inkscape:cx="22.482"
     inkscape:cy="680.32488"
     inkscape:window-width="1920"
     inkscape:window-height="1002"
     inkscape:window-x="-8"
     inkscape:window-y="-8"
     inkscape:window-maximized="1"
     inkscape:current-layer="layer6" /><defs
     id="defs1"><clipPath
       clipPathUnits="userSpaceOnUse"
       id="clipPath3"><path
         id="path4"
         style="fill:#000000;stroke-width:1"
         d="m 141.43009,81.35834 c -12.10364,-0.36966 -23.80368,7.682271 -21.35787,14.698328 l 0.2744,0.787549 -6.78822,0.138492 C 81.404361,97.63698 54.018785,116.3893 43.062966,139.40441 c -2.732142,5.07935 -4.283641,10.27119 -5.746419,17.56223 0.284489,4.51677 0.668575,7.86073 1.157552,10.619 0.681661,4.41919 2.030909,8.80201 4.18269,13.06121 12.35196,24.44928 21.374821,31.10194 44.798299,33.02951 42.597412,3.50545 89.443422,-39.88567 78.792602,-72.98159 -2.24647,-6.9806 -4.26932,-12.44745 -6.29677,-17.02325 -0.19878,-0.49436 -0.41448,-0.93841 -0.6227,-1.40302 -4.2717,-9.19723 -8.6698,-14.17477 -15.33446,-18.27847 l -2.19884,-1.35392 1.1405,-0.43873 c 16.13786,-6.205371 15.11746,-20.33136 -1.50533,-20.83904 z m -0.65371,4.386812 c 2.7878,0.0206 5.32495,0.638686 7.01663,1.98851 2.57979,2.058465 1.03644,5.866539 -3.44062,8.490437 -0.6197,0.363133 -1.7388,0.901326 -2.48719,1.19631 l -1.36115,0.536401 -0.006,-1.120345 c -0.021,-4.044801 -4.96335,-7.119661 -10.11153,-6.290572 -1.92952,0.310742 -2.49647,0.684786 -4.36872,2.883028 -1.48329,1.741541 -1.98993,1.437903 -0.95136,-0.570508 2.22957,-4.311596 9.57648,-7.158576 15.70963,-7.113261 z m -24.95041,12.544971 c 0.33192,0.0025 0.6541,0.03165 0.98443,0.03876 -3.43597,-0.019 -6.87192,0.123129 -10.3079,0.479557 3.15132,-0.366406 6.27045,-0.541394 9.32347,-0.518315 z" /></clipPath><clipPath
       clipPathUnits="userSpaceOnUse"
       id="clipPath6"><path
         id="path7"
         style="fill:#000000;stroke-width:1"
         d="m 78.667509,124.18673 c -12.775578,0.0307 -12.250679,0.352 -14.521079,1.89033 -3.40142,2.30467 -4.31486,4.55322 -4.61263,11.35228 -0.179451,4.09727 -0.224621,4.37388 -0.75293,4.60592 -0.830961,0.36497 -0.997939,5.0322 -0.20257,5.66167 0.586761,0.46438 0.50266,2.12596 -0.10749,2.12596 -0.19196,0 -0.420891,0.22724 -0.509011,0.50488 -0.150928,0.47555 -0.254068,0.45638 -1.780249,-0.33073 -4.746259,-2.44782 -6.514999,-1.10445 -8.04396,6.10971 -1.103781,5.20803 -2.175341,8.05382 -4.937681,13.11186 -1.5383,2.81674 -2.18794,4.34875 -2.83755,6.69417 -1.536279,5.54667 -3.460369,10.9048 -6.167588,17.17362 -2.326431,5.38708 -2.540421,6.22138 -2.84788,11.10837 -0.463791,7.37156 -1.014061,12.61821 -1.967841,18.76526 -0.753991,4.85937 -0.926039,6.7123 -0.926039,9.96219 0,7.82903 2.321348,4.75536 -9.925672,22.44151 -6.006269,7.71571 39.926051,35.3808 50.136991,20.71243 1.336911,-1.04128 2.39145,-2.08255 6.61992,-3.12383 7.211669,-2.58033 13.271611,-6.11152 22.535581,-13.13201 l 4.411619,-3.34347 13.44776,-0.0811 13.44775,-0.0811 1.75804,-0.68317 c 3.32994,-1.29369 5.59152,-3.42092 7.16183,-6.73705 l 0.86972,-1.8371 -0.0103,-4.89479 c -0.006,-2.69213 -0.0949,-5.84729 -0.19844,-7.01146 l -0.1881,-2.11667 1.2299,-0.77669 c 3.66964,-2.31748 8.47943,-6.68406 9.31055,-8.4522 2.19026,-4.65956 0.25266,-10.90736 -3.84162,-12.38788 -1.10907,-0.40104 -1.10344,-0.42608 0.32763,-1.5043 7.32327,-5.51761 7.70549,-12.80955 0.90742,-17.30798 l -1.25625,-0.83096 1.94821,-2.09703 c 7.16279,-7.71005 -0.53567,-19.03449 -10.83293,-15.93546 -0.89261,0.26859 -1.23311,0.28688 -1.23611,0.0661 -0.002,-0.16766 -0.0707,-0.55387 -0.15244,-0.85834 -0.1654,-0.61607 2.8951,-2.75765 8.35814,-5.84822 1.52798,-0.86441 4.08781,-2.31206 5.68855,-3.21738 6.66263,-3.76818 9.465,-7.28191 9.04595,-11.34194 -0.47085,-4.56216 -5.17466,-7.24339 -10.12237,-5.77019 -2.0983,0.62478 -10.37988,4.28171 -12.35998,5.45806 -2.22237,1.3203 -1.86079,2.50364 -2.55229,-8.36021 -0.92979,-14.60761 -1.51762,-16.21563 -6.85022,-18.74201 l -1.76734,-0.83716 -27.891839,-0.0718 c -7.81037,-0.0202 -13.54659,-0.0423 -17.805112,-0.032 z"
         sodipodi:nodetypes="csssssssssssssscccccccccccccsssscccccssccscsccccc" /></clipPath><clipPath
       clipPathUnits="userSpaceOnUse"
       id="clipPath8"><path
         d="M 179.78436,7.1737199 C 171.47691,3.5278809 166.678,1.34327 166.25798,1.016099 c -0.19358,-0.15078601 -0.36503,-2.32874 -0.49172,-6.2462 -0.10697,-3.3080799 -0.27088,-7.016505 -0.36424,-8.240944 l -0.16974,-2.226254 -0.92604,-0.310894 -0.92604,-0.310894 v -4.209727 -4.209728 l 3.33536,-1.139182 3.33536,-1.139182 -0.40562,-1.127969 c -0.57406,-1.596411 0.065,-2.752042 3.49334,-6.317104 3.64528,-3.790649 4.60983,-3.753681 8.69681,0.333303 l 2.1141,2.114093 h 2.32595 2.32595 l 1.1881,-1.653646 c 3.22962,-4.49512 6.16788,-5.413555 8.20247,-2.563916 0.46622,0.652981 1.26033,1.287386 2.12136,1.694715 2.80251,1.325798 4.02633,3.693739 3.08436,5.967851 -0.4217,1.018067 -0.67971,0.855062 3.27822,2.071103 4.16917,1.280945 3.7917,0.755317 3.90482,5.437525 l 0.0952,3.942174 -1.08474,0.397494 -1.08475,0.397494 -0.17711,5.317624 c -0.0974,2.924693 -0.25294,6.784468 -0.34563,8.577278 l -0.16852,3.25965501 -2.9243,1.46658799 c -17.50323,8.778204 -16.4747,8.576831 -24.90662,4.8763639 z"
         style="fill:#000000;stroke-width:1"
         id="path9" /></clipPath><clipPath
       clipPathUnits="userSpaceOnUse"
       id="clipPath9"><path
         d="m 227.27708,176.65381 c -2.11006,-0.90512 -4.37224,-1.94468 -5.02709,-2.31014 l -1.19062,-0.66447 0.0901,-2.80121 c 0.12589,-3.91448 -0.43241,-4.94391 -3.72702,-6.87209 -2.8958,-1.69477 -3.47119,-3.55732 -1.8477,-5.98099 2.16665,-3.23455 2.23013,-3.39254 2.43116,-6.05053 0.29126,-3.85095 0.94661,-4.45927 5.32789,-4.9455 l 2.62037,-0.29081 v -1.20673 c 0,-3.31636 2.40582,-5.28559 5.54574,-4.53934 3.1968,0.75977 3.82499,0.72678 5.07935,-0.26669 1.69181,-1.33994 2.34874,-1.15523 5.16519,1.45231 l 1.5609,1.44512 1.88347,-0.38754 c 2.77676,-0.57132 3.34034,-0.27008 4.98871,2.66659 0.70848,1.26219 1.79883,2.89318 2.42301,3.62443 1.36763,1.60221 1.36372,1.52022 0.20884,4.38429 -1.16233,2.88253 -1.15621,3.12717 0.11091,4.43265 0.86604,0.89225 1.14948,1.48267 1.71961,3.58189 0.97894,3.60452 0.95663,3.74993 -0.77097,5.02618 -1.77936,1.3145 -2.2832,2.04832 -2.35415,3.42878 -0.0605,1.17768 -1.25526,3.11617 -2.3712,3.84736 -0.47783,0.31308 -1.70278,0.49658 -4.44989,0.6666 -4.15587,0.25721 -5.5547,0.55998 -9.57156,2.07174 -4.0228,1.514 -3.54401,1.53303 -7.84504,-0.3119 z"
         style="fill:#000000;stroke-width:1"
         id="path10" /></clipPath><clipPath
       clipPathUnits="userSpaceOnUse"
       id="clipPath10"><path
         d="m -23.30367,14.048034 c -4.220101,-1.87377 -8.863541,-3.950717 -10.318749,-4.6154384 L -36.26825,8.2240125 -36.443769,5.1049044 c -0.0965,-1.7155088 -0.257551,-5.44869594 -0.357812,-8.295971 l -0.182298,-5.1768639 -1.097391,-0.3793861 -1.097399,-0.379386 -0.0728,-3.9969504 c -0.0857,-4.701231 -0.41942,-4.202397 3.71638,-5.554584 2.492118,-0.814792 3.078289,-1.098888 2.933739,-1.421894 -0.825029,-1.843616 -0.296799,-3.217722 2.228321,-5.796564 0.977749,-0.998553 2.203728,-2.307007 2.724388,-2.907675 1.710691,-1.973535 4.092811,-1.258186 7.320961,2.198484 l 1.86877,2.001057 2.34013,-0.01646 2.34014,-0.01646 1.51138,-2.089849 c 2.8390004,-3.92562 5.4061403,-4.755759 7.5721803,-2.448629 0.6818501,0.726258 1.74141,1.576409 2.35458,1.889226 2.82378,1.440584 3.82405,3.183986 3.23518001,5.638674 -0.37730001,1.57277 -0.80297001,1.24746 3.34378989,2.555413 l 3.4650201,1.092925 0.1718001,2.981437 c 0.3083798,5.351905 0.3487499,5.1199659 -0.9794201,5.6271989 l -1.1536201,0.4405702 -0.20365,6.5266259 C 5.4265904,1.1654865 5.2611102,5.0454385 5.1708603,6.1979585 l -0.16408,2.095491 -4.78162,2.2701335 C -16.81214,18.652271 -13.90397,18.221591 -23.30364,14.048038 Z"
         style="fill:#000000;stroke-width:1"
         id="path11" /></clipPath><clipPath
       clipPathUnits="userSpaceOnUse"
       id="clipPath11"><path
         d="m 150.33027,-119.18156 c -2.22976,-0.92847 -4.53071,-2.00353 -5.11323,-2.38902 l -1.05912,-0.70089 0.18195,-2.56637 c 0.26994,-3.80754 -0.36277,-5.05553 -3.43519,-6.77572 -3.6229,-2.02839 -3.93104,-3.57021 -1.4447,-7.22891 l 1.66478,-2.44977 0.11332,-2.44502 c 0.18478,-3.98717 0.80266,-4.58064 5.25645,-5.04886 l 2.71844,-0.28578 -0.0286,-1.26915 c -0.0297,-1.31783 0.33977,-2.04644 2.11465,-4.17023 l 0.76942,-0.92066 2.61589,0.58993 c 3.57215,0.80559 4.05836,0.77527 5.38858,-0.33611 1.56746,-1.30956 1.99315,-1.17802 4.90475,1.51563 l 1.57755,1.45947 1.95672,-0.39372 c 2.76315,-0.55597 3.21133,-0.30161 5.12815,2.91047 0.82204,1.37752 1.91571,3.00859 2.43039,3.62462 1.14486,1.37031 1.14463,1.26986 0.01,4.20847 -1.15434,2.98896 -1.15484,2.97514 0.15781,4.39919 0.91297,0.99045 1.18329,1.56313 1.71449,3.63211 0.89991,3.50507 0.87564,3.69397 -0.61553,4.79093 -1.98192,1.45797 -2.4216,2.04651 -2.53364,3.39144 -0.11018,1.3226 -1.32319,3.36437 -2.42935,4.08915 -0.45071,0.29532 -1.72007,0.47573 -4.41627,0.62769 -4.27834,0.24113 -5.87928,0.59922 -10.15793,2.27208 -3.61954,1.41516 -2.62621,1.48577 -7.46953,-0.53097 z"
         style="fill:#000000;stroke-width:1"
         id="path12" /></clipPath><clipPath
       clipPathUnits="userSpaceOnUse"
       id="clipPath12"><path
         style="fill:#000000;stroke-width:1"
         d="m -31.8823,259.46108 c -4.365619,-1.92947 -8.961979,-3.99124 -10.214131,-4.58171 l -2.276639,-1.07358 -0.165499,-2.74717 c -0.091,-1.51094 -0.244602,-5.22931 -0.34127,-8.26305 l -0.175771,-5.5159 -1.159161,-0.49687 -1.15915,-0.49687 0.0729,-4.15194 0.0729,-4.15194 3.175,-1.05016 c 1.74625,-0.5776 3.208589,-1.07739 3.24965,-1.11065 0.0411,-0.0333 -0.0637,-0.58251 -0.232759,-1.22055 -0.602092,-2.2721 4.699119,-8.96528 7.1008,-8.96528 1.849718,0 6.94794,3.70386 6.94794,5.04768 0,0.13419 1.108459,0.24399 2.463249,0.24399 h 2.46326 l 1.13327,-1.71128 c 2.93347,-4.42963 8.75688,-5.74217 8.75688,-1.97371 0,0.13534 0.77471,0.61211 1.72157,1.05948 2.8263901,1.3354 3.92727,3.53568 2.9451401,5.88626 -0.31482,0.75347 -0.3377002,1.02362 -0.094,1.11004 0.1771499,0.0628 1.7495099,0.54286 3.4941499,1.06677 4.1573501,1.24844 3.8393901,0.80103 3.8393901,5.40262 v 3.89622 l -1.02894,0.40418 -1.02893,0.40418 -0.17338,4.06772 c -0.0954,2.23725 -0.2574199,6.09179 -0.3601301,8.56565 l -0.18674,4.49791 -2.7781298,1.37506 c -18.1954102,9.00598 -16.4909002,8.71278 -26.0614592,4.4829 z"
         id="path13"
         sodipodi:nodetypes="sscsscccccsssssscssssssscccsscsss" /></clipPath><clipPath
       clipPathUnits="userSpaceOnUse"
       id="clipPath13"><path
         d="m -199.37113,171.61443 c -6.3814,-2.66884 -6.26431,-2.55304 -6.04015,-5.97359 0.23982,-3.6594 -0.48803,-4.97807 -3.69256,-6.68997 -3.13822,-1.67647 -3.57516,-3.44215 -1.57288,-6.356 1.91454,-2.78616 1.99606,-2.99762 2.20359,-5.7161 0.2903,-3.80261 0.99595,-4.44907 5.33928,-4.89146 l 2.57969,-0.26276 v -1.24717 c 0,-0.99559 0.19322,-1.53336 0.95788,-2.66592 1.72526,-2.55532 1.55615,-2.47539 4.10638,-1.9409 4.56165,0.95607 4.416,0.95806 5.5607,-0.0761 1.60759,-1.45236 2.39562,-1.21049 5.52028,1.69435 l 1.19629,1.11213 2.06395,-0.38971 c 2.76305,-0.52172 3.19914,-0.26158 5.09153,3.03721 0.78073,1.36097 1.83907,2.9389 2.35187,3.5065 1.14597,1.26845 1.146,1.29102 0.006,4.24202 -1.15576,2.99265 -1.1549,3.01754 0.14981,4.34695 0.92075,0.93817 1.16868,1.45254 1.71979,3.56791 0.93498,3.58881 0.92282,3.65338 -0.96337,5.11814 -1.65316,1.2838 -2.36143,2.42616 -2.36143,3.80874 0,0.78239 -1.48747,3.13727 -2.25187,3.56505 -0.23245,0.13009 -2.23188,0.3423 -4.44319,0.47158 -4.3767,0.25588 -5.86064,0.59287 -10.36385,2.35354 -3.31271,1.29521 -2.40582,1.37306 -7.15806,-0.61443 z"
         style="fill:#000000;stroke-width:1"
         id="path14" /></clipPath><clipPath
       clipPathUnits="userSpaceOnUse"
       id="clipPath5"><path
         id="path6"
         style="fill:#000000;stroke-width:0.82875"
         d="m 561.96876,-241.70987 v 9.77274 h 16.18455 c -0.0105,-4.13939 -0.0259,-7.37412 -0.0416,-9.77274 z" /></clipPath><clipPath
       clipPathUnits="userSpaceOnUse"
       id="clipPath5-5"><path
         id="path6-4"
         style="fill:#000000;stroke-width:0.82875"
         d="m 561.96876,-241.70987 v 9.77274 h 16.18455 c -0.0105,-4.13939 -0.0259,-7.37412 -0.0416,-9.77274 z" /></clipPath><clipPath
       clipPathUnits="userSpaceOnUse"
       id="clipPath5-56"><path
         id="path6-6"
         style="fill:#000000;stroke-width:0.82875"
         d="m 561.96876,-241.70987 v 9.77274 h 16.18455 c -0.0105,-4.13939 -0.0259,-7.37412 -0.0416,-9.77274 z" /></clipPath><clipPath
       clipPathUnits="userSpaceOnUse"
       id="clipPath5-0"><path
         id="path6-2"
         style="fill:#000000;stroke-width:0.82875"
         d="m 561.96876,-241.70987 v 9.77274 h 16.18455 c -0.0105,-4.13939 -0.0259,-7.37412 -0.0416,-9.77274 z" /></clipPath><clipPath
       clipPathUnits="userSpaceOnUse"
       id="clipPath15"><path
         style="opacity:1;fill:#ff0000;stroke-width:1"
         d="m 519.60542,-180.14936 c -1.62502,-0.24089 -1.98075,-0.58719 -2.18501,-2.12706 l -0.17142,-1.29219 -2.33059,-0.0923 c -2.04517,-0.081 -2.14575,-0.37899 -2.96522,-1.00438 -1.93418,-1.47612 -2.0015,1.21762 -2.0015,-33.8153 v -31.47245 l 0.50188,-0.89273 c 0.29016,-0.51612 0.97436,-1.14392 1.42991,-1.45092 0.82704,-0.55733 0.87596,-0.55847 31.47912,-0.73149 18.50147,-0.1046 31.06222,-0.0763 31.68867,0.0713 1.30316,0.30712 2.15161,1.00575 2.83118,2.15947 0.51966,0.88223 0.53064,1.45019 0.61086,31.59005 0.0573,21.51738 -0.005,31.09409 -0.20783,32.03794 -0.20177,0.93808 -0.44767,1.59028 -1.04031,2.15106 -1.28317,1.21423 -1.81972,1.39746 -4.09212,1.39746 h -2.08577 l -0.24672,1.3848 c -0.3243,1.82031 -0.79081,2.04585 -4.24212,2.05088 -3.99579,0.006 -4.45603,-0.24184 -4.66331,-2.50964 l -0.0725,-0.9932 -17.66094,-0.068 -17.66094,-0.068 v 1.11014 c 0,1.43079 -0.40476,2.20123 -1.24089,2.36197 -1.42939,0.2748 -4.45789,0.38291 -5.67439,0.20257 z"
         id="path15"
         sodipodi:nodetypes="sscssscssscsscsscscscccssss" /></clipPath></defs><g
     inkscape:label="generated-gifts"
     inkscape:groupmode="layer"
     id="layer1"
     transform="translate(-78.591612,-123.45571)"
     inkscape:highlight-color="#000000"
     sodipodi:insensitive="true"
     style="display:none"><image
       width="313.26666"
       height="228.60001"
       preserveAspectRatio="none"
       style="image-rendering:optimizeQuality"
       xlink:href="Gemini_Generated_Image_tr8gs5tr8gs5tr8g.png"
       id="image1"
       x="340.65332"
       y="-35.955574" /><path
       d="m 455.07802,129.83802 c -6.3814,-2.66884 -6.26431,-2.55304 -6.04015,-5.97359 0.23982,-3.6594 -0.48803,-4.97807 -3.69256,-6.68997 -3.13822,-1.67647 -3.57516,-3.44215 -1.57288,-6.356 1.91454,-2.78616 1.99606,-2.99762 2.20359,-5.7161 0.2903,-3.80261 0.99595,-4.44907 5.33928,-4.89146 l 2.57969,-0.262755 v -1.247169 c 0,-0.99559 0.19322,-1.533359 0.95788,-2.665921 1.72526,-2.555321 1.55615,-2.475393 4.10638,-1.940897 4.56165,0.956065 4.416,0.958058 5.5607,-0.07611 1.60759,-1.452363 2.39562,-1.210492 5.52028,1.694347 l 1.19629,1.112129 2.06395,-0.389713 c 2.76305,-0.521718 3.19914,-0.261579 5.09153,3.037216 0.78073,1.360963 1.83907,2.938893 2.35187,3.506493 1.14597,1.26845 1.146,1.29102 0.006,4.24202 -1.15576,2.99265 -1.1549,3.01754 0.14981,4.34695 0.92075,0.93817 1.16868,1.45254 1.71979,3.56791 0.93498,3.58881 0.92282,3.65338 -0.96337,5.11814 -1.65316,1.2838 -2.36143,2.42616 -2.36143,3.80874 0,0.78239 -1.48747,3.13727 -2.25187,3.56505 -0.23245,0.13009 -2.23188,0.3423 -4.44319,0.47158 -4.3767,0.25588 -5.86064,0.59287 -10.36385,2.35354 -3.31271,1.29521 -2.40582,1.37306 -7.15806,-0.61443 z"
       style="fill:#000000"
       id="path1-62" /><path
       d="m 456.67311,74.399375 c -4.2201,-1.87377 -8.86354,-3.950717 -10.31875,-4.615439 l -2.64583,-1.208583 -0.17552,-3.119108 c -0.0965,-1.715509 -0.25755,-5.448696 -0.35781,-8.295971 l -0.1823,-5.176864 -1.09739,-0.379386 -1.0974,-0.379386 -0.0728,-3.99695 c -0.0857,-4.701231 -0.41942,-4.202397 3.71638,-5.554584 2.49212,-0.814792 3.07829,-1.098888 2.93374,-1.421894 -0.82503,-1.843616 -0.2968,-3.217722 2.22832,-5.796564 0.97775,-0.998552 2.20373,-2.307006 2.72439,-2.907675 1.71069,-1.973536 4.09281,-1.258185 7.32096,2.198485 l 1.86877,2.001056 2.34013,-0.01646 2.34014,-0.01646 1.51138,-2.089848 c 2.839,-3.925621 5.40614,-4.755758 7.57218,-2.448629 0.68185,0.726258 1.74141,1.57641 2.35458,1.889226 2.82378,1.440583 3.82405,3.183986 3.23518,5.638674 -0.3773,1.572769 -0.80297,1.247459 3.34379,2.555413 l 3.46502,1.092924 0.1718,2.981437 c 0.30838,5.351905 0.34875,5.119966 -0.97942,5.627199 l -1.15362,0.44057 -0.20365,6.526626 c -0.11201,3.589643 -0.27749,7.469595 -0.36774,8.622115 l -0.16408,2.095491 -4.78162,2.270134 c -17.0373,8.088688 -14.12913,7.658008 -23.5288,3.484455 z"
       style="fill:#000000"
       id="path1-5" /><path
       d="M 533.65704,77.808792 C 532.5514,77.399786 520.81706,72.220004 516.9981,70.455185 l -3.96875,-1.83404 -0.30613,-7.243046 c -0.16837,-3.983676 -0.3172,-7.730216 -0.33073,-8.325646 -0.0234,-1.027992 -0.0783,-1.09869 -1.08943,-1.401628 l -1.06482,-0.31903 0.0726,-4.268957 0.0726,-4.268956 3.24644,-1.070104 c 2.59348,-0.854874 3.21066,-1.151173 3.06854,-1.473166 -0.84982,-1.925302 -0.43687,-3.071455 2.09121,-5.804233 1.19743,-1.294382 2.49085,-2.721997 2.87427,-3.172478 1.48705,-1.747134 3.8498,-0.998115 7.0347,2.230085 l 2.21244,2.242524 2.30391,-0.01129 2.3039,-0.01129 1.55941,-2.135337 c 3.07526,-4.211028 5.88513,-4.980052 7.95519,-2.177232 0.53258,0.721103 1.31576,1.327348 2.31906,1.795144 2.60499,1.214589 3.47518,3.16725 2.81742,6.322095 -0.0825,0.395478 0.45352,0.654041 3.2083,1.547731 4.21395,1.367068 3.91724,0.959588 4.00292,5.497484 0.0775,4.104028 0.12009,3.966156 -1.39026,4.499603 l -0.69463,0.245339 -0.19871,5.376898 c -0.10929,2.957294 -0.27296,6.805649 -0.3637,8.551899 l -0.165,3.175 -3.57187,1.765592 c -3.11796,1.54122 -7.82563,3.738665 -14.81786,6.916686 -1.36108,0.618617 -2.15434,0.840026 -2.52216,0.703961 z"
       style="fill:#000000"
       id="path1-6" /><path
       style="fill:#000000"
       d="m 381.53144,75.07426 c -4.36562,-1.929469 -8.96198,-3.991237 -10.21413,-4.581707 l -2.27664,-1.073581 -0.1655,-2.747168 c -0.091,-1.510942 -0.2446,-5.229318 -0.34127,-8.263058 l -0.17577,-5.515891 -1.15916,-0.496871 -1.15915,-0.496872 0.0729,-4.15194 0.0729,-4.15194 3.175,-1.050166 c 1.74625,-0.577592 3.20859,-1.077381 3.24965,-1.110643 0.0411,-0.03326 -0.0637,-0.582508 -0.23276,-1.220548 -0.60209,-2.272103 4.69912,-8.965281 7.1008,-8.965281 1.84972,0 6.94794,3.703853 6.94794,5.047676 0,0.134195 1.10846,0.243991 2.46325,0.243991 h 2.46326 l 1.13327,-1.711277 c 2.93347,-4.429632 8.75688,-5.742174 8.75688,-1.973717 0,0.135343 0.77471,0.61211 1.72157,1.059481 2.82639,1.335402 3.92727,3.535681 2.94514,5.886261 -0.31482,0.75347 -0.3377,1.023624 -0.094,1.110039 0.17715,0.06282 1.74951,0.542864 3.49415,1.066774 4.15735,1.248443 3.83939,0.801033 3.83939,5.402618 v 3.896219 l -1.02894,0.404178 -1.02893,0.404179 -0.17338,4.067727 c -0.0954,2.23725 -0.25742,6.09179 -0.36013,8.565644 l -0.18674,4.497917 -2.77813,1.375058 c -18.19541,9.00598 -16.4909,8.712783 -26.06146,4.482898 z"
       id="path8"
       sodipodi:nodetypes="sscsscccccsssssscssssssscccsscsss" /><path
       d="m 526.70234,129.81912 c -2.22976,-0.92847 -4.53071,-2.00353 -5.11323,-2.38902 l -1.05912,-0.70089 0.18195,-2.56637 c 0.26994,-3.80754 -0.36277,-5.05553 -3.43519,-6.77572 -3.6229,-2.02839 -3.93104,-3.57021 -1.4447,-7.22891 l 1.66478,-2.44977 0.11332,-2.44502 c 0.18478,-3.98717 0.80266,-4.58064 5.25645,-5.04886 l 2.71844,-0.285778 -0.0286,-1.269151 c -0.0297,-1.317836 0.33977,-2.046438 2.11465,-4.170231 l 0.76942,-0.920664 2.61589,0.589934 c 3.57215,0.805592 4.05836,0.775266 5.38858,-0.336107 1.56746,-1.309568 1.99315,-1.178021 4.90475,1.515631 l 1.57755,1.459461 1.95672,-0.393713 c 2.76315,-0.555975 3.21133,-0.301609 5.12815,2.910472 0.82204,1.377516 1.91571,3.008586 2.43039,3.624616 1.14486,1.37031 1.14463,1.26986 0.01,4.20847 -1.15434,2.98896 -1.15484,2.97514 0.15781,4.39919 0.91297,0.99045 1.18329,1.56313 1.71449,3.63211 0.89991,3.50507 0.87564,3.69397 -0.61553,4.79093 -1.98192,1.45797 -2.4216,2.04651 -2.53364,3.39144 -0.11018,1.3226 -1.32319,3.36437 -2.42935,4.08915 -0.45071,0.29532 -1.72007,0.47573 -4.41627,0.62769 -4.27834,0.24113 -5.87928,0.59922 -10.15793,2.27208 -3.61954,1.41516 -2.62621,1.48577 -7.46953,-0.53097 z"
       style="fill:#000000"
       id="path1-1" /><path
       d="m 596.24082,129.85032 c -2.11006,-0.90512 -4.37224,-1.94468 -5.02709,-2.31014 l -1.19062,-0.66447 0.0901,-2.80121 c 0.12589,-3.91448 -0.43241,-4.94391 -3.72702,-6.87209 -2.8958,-1.69477 -3.47119,-3.55732 -1.8477,-5.98099 2.16665,-3.23455 2.23013,-3.39254 2.43116,-6.05053 0.29126,-3.85095 0.94661,-4.45927 5.32789,-4.9455 l 2.62037,-0.290809 v -1.206729 c 0,-3.316366 2.40582,-5.285595 5.54574,-4.539345 3.1968,0.759769 3.82499,0.726786 5.07935,-0.266683 1.69181,-1.339941 2.34874,-1.155233 5.16519,1.452308 l 1.5609,1.445116 1.88347,-0.387534 c 2.77676,-0.571329 3.34034,-0.270082 4.98871,2.666586 0.70848,1.26219 1.79883,2.89318 2.42301,3.62443 1.36763,1.60221 1.36372,1.52022 0.20884,4.38429 -1.16233,2.88253 -1.15621,3.12717 0.11091,4.43265 0.86604,0.89225 1.14948,1.48267 1.71961,3.58189 0.97894,3.60452 0.95663,3.74993 -0.77097,5.02618 -1.77936,1.3145 -2.2832,2.04832 -2.35415,3.42878 -0.0605,1.17768 -1.25526,3.11617 -2.3712,3.84736 -0.47783,0.31308 -1.70278,0.49658 -4.44989,0.6666 -4.15587,0.25721 -5.5547,0.55998 -9.57156,2.07174 -4.0228,1.514 -3.54401,1.53303 -7.84504,-0.3119 z"
       style="fill:#000000"
       id="path1-9" /></g><g
     inkscape:groupmode="layer"
     id="layer5"
     inkscape:label="generated-illustrations"
     inkscape:highlight-color="#000000"
     style="display:none"
     sodipodi:insensitive="true"><image
       width="313.26666"
       height="228.60001"
       preserveAspectRatio="none"
       style="image-rendering:optimizeQuality"
       xlink:href="Gemini_Generated_Image_2zxowy2zxowy2zxo.png"
       id="image1-57"
       x="103.54287"
       y="-265.3367" /><path
       style="fill:#000000"
       d="m 337.13371,-120.04857 c -1.62501,-0.24089 -1.98074,-0.58719 -2.18501,-2.12706 l -0.17142,-1.29219 -2.33058,-0.0923 c -2.04517,-0.081 -2.44495,-0.17954 -3.26441,-0.80493 -1.93419,-1.47612 -1.80204,1.01817 -1.80204,-34.01475 v -31.47245 l 0.60161,-0.89273 c 0.33088,-0.491 0.97434,-1.14392 1.42991,-1.45092 0.82702,-0.55733 0.87596,-0.55847 31.47912,-0.73149 18.50147,-0.1046 31.0622,-0.0763 31.68867,0.0713 1.30314,0.30712 2.25133,1.00575 2.93089,2.15947 0.51966,0.88223 0.53064,1.45019 0.61086,31.59005 0.0573,21.51738 -0.005,31.09409 -0.20783,32.03794 -0.20175,0.93808 -0.5474,1.59028 -1.14003,2.15106 -1.28318,1.21423 -1.81972,1.39746 -4.09211,1.39746 h -2.08578 l -0.24672,1.3848 c -0.32431,1.82031 -0.79081,2.04585 -4.24213,2.05088 -3.99578,0.006 -4.45601,-0.24184 -4.66329,-2.50964 l -0.0725,-0.79375 -17.66094,-0.068 -17.66093,-0.068 v 0.91069 c 0,1.43079 -0.40477,2.20123 -1.24091,2.36197 -1.42939,0.2748 -4.45788,0.38291 -5.67438,0.20257 z"
       id="path1"
       sodipodi:nodetypes="sscssscssscsscsscscscccssss" /></g><g
     inkscape:groupmode="layer"
     id="layer6"
     inkscape:label="end"
     inkscape:highlight-color="#eca600"
     sodipodi:insensitive="true"><image
       width="313.26666"
       height="228.60001"
       preserveAspectRatio="none"
       style="opacity:1;fill:#ff0000;image-rendering:optimizeQuality"
       xlink:href="Gemini_Generated_Image_2zxowy2zxowy2zxo.png"
       id="image1-57-4"
       x="286.01459"
       y="-325.4375"
       clip-path="url(#clipPath15)"
       transform="matrix(0.64833876,0,0,0.64833876,-329.29861,164.13593)" /><image
       width="313.26666"
       height="228.60001"
       preserveAspectRatio="none"
       style="image-rendering:optimizeQuality"
       xlink:href="Gemini_Generated_Image_2zxowy2zxowy2zxo.png"
       id="image1-57-4-7"
       x="286.01459"
       y="-325.4375"
       clip-path="url(#clipPath5)"
       transform="matrix(0.64833876,0,0,0.64833876,-329.27003,168.47745)" /><image
       width="313.26666"
       height="228.60001"
       preserveAspectRatio="none"
       style="image-rendering:optimizeQuality"
       xlink:href="Gemini_Generated_Image_2zxowy2zxowy2zxo.png"
       id="image1-57-4-7-7"
       x="286.01459"
       y="-325.4375"
       clip-path="url(#clipPath5-5)"
       transform="matrix(0.64833876,0,0,0.64833876,-329.27003,173.76912)" /><image
       width="313.26666"
       height="228.60001"
       preserveAspectRatio="none"
       style="image-rendering:optimizeQuality"
       xlink:href="Gemini_Generated_Image_2zxowy2zxowy2zxo.png"
       id="image1-57-4-7-3"
       x="286.01459"
       y="-325.4375"
       clip-path="url(#clipPath5-56)"
       transform="matrix(0.64833876,0,0,0.64833876,-329.27003,179.06079)" /><image
       width="313.26666"
       height="228.60001"
       preserveAspectRatio="none"
       style="image-rendering:optimizeQuality"
       xlink:href="Gemini_Generated_Image_2zxowy2zxowy2zxo.png"
       id="image1-57-4-7-75"
       x="286.01459"
       y="-325.4375"
       clip-path="url(#clipPath5-0)"
       transform="matrix(0.64833876,0,0,0.64833876,-329.27003,184.35246)" /></g><g
     inkscape:groupmode="layer"
     id="layer4"
     inkscape:label="green"
     inkscape:highlight-color="#27bf1b"
     sodipodi:insensitive="true"><image
       width="313.26666"
       height="228.60001"
       preserveAspectRatio="none"
       style="display:none;image-rendering:optimizeQuality"
       xlink:href="Gemini_Generated_Image_tr8gs5tr8gs5tr8g.png"
       id="image1-83"
       x="-72.760422"
       y="148.43124"
       clip-path="url(#clipPath12)"
       inkscape:label="gift-green"
       transform="translate(47.364342,-214.95015)" /><image
       width="313.26666"
       height="228.60001"
       preserveAspectRatio="none"
       style="display:none;image-rendering:optimizeQuality"
       xlink:href="Gemini_Generated_Image_tr8gs5tr8gs5tr8g.png"
       id="image1-0"
       x="-313.79584"
       y="5.8208318"
       clip-path="url(#clipPath13)"
       inkscape:label="wrapper-green"
       transform="translate(215.10442,-130.3218)" /></g><g
     inkscape:groupmode="layer"
     id="layer3"
     inkscape:label="blue"
     sodipodi:insensitive="true"
     style="display:inline"
     inkscape:highlight-color="#212ff3"><image
       width="313.26666"
       height="228.60001"
       preserveAspectRatio="none"
       style="display:none;image-rendering:optimizeQuality"
       xlink:href="Gemini_Generated_Image_tr8gs5tr8gs5tr8g.png"
       id="image1-5"
       x="-139.32346"
       y="-96.306915"
       clip-path="url(#clipPath10)"
       inkscape:label="gift-blue"
       transform="translate(39.168534,30.45857)" /><image
       width="313.26666"
       height="228.60001"
       preserveAspectRatio="none"
       style="display:none;image-rendering:optimizeQuality"
       xlink:href="Gemini_Generated_Image_tr8gs5tr8gs5tr8g.png"
       id="image1-8"
       x="-35.71875"
       y="-284.95627"
       clip-path="url(#clipPath11)"
       inkscape:label="wrapper-blue"
       transform="translate(-134.65306,160.5263)" /></g><g
     inkscape:groupmode="layer"
     id="layer2"
     inkscape:label="red"
     transform="translate(-163.8991,-79.535597)"
     sodipodi:insensitive="true"
     style="display:inline"
     inkscape:highlight-color="#b81b1b"><image
       width="313.26666"
       height="228.60001"
       preserveAspectRatio="none"
       style="display:none;image-rendering:optimizeQuality"
       xlink:href="Gemini_Generated_Image_tr8gs5tr8gs5tr8g.png"
       id="image1-9"
       x="-76.199997"
       y="-104.51042"
       clip-path="url(#clipPath8)"
       transform="translate(0.51890081,117.39454)"
       inkscape:label="gift-red" /><image
       width="313.26666"
       height="228.60001"
       preserveAspectRatio="none"
       style="display:none;image-rendering:optimizeQuality"
       xlink:href="Gemini_Generated_Image_tr8gs5tr8gs5tr8g.png"
       id="image1-1"
       x="-28.310419"
       y="10.847916"
       clip-path="url(#clipPath9)"
       transform="translate(-47.327931,-56.017509)"
       inkscape:label="wrapper-red" /></g></svg>
