<?xml version="1.0" encoding="UTF-8" standalone="no"?>
<!-- Created with Inkscape (http://www.inkscape.org/) -->

<svg
   width="297mm"
   height="136mm"
   viewBox="0 0 297 136"
   version="1.1"
   id="svg1"
   xml:space="preserve"
   inkscape:version="1.3.2 (091e20e, 2023-11-25, custom)"
   sodipodi:docname="more-to-come.svg"
   xmlns:inkscape="http://www.inkscape.org/namespaces/inkscape"
   xmlns:sodipodi="http://sodipodi.sourceforge.net/DTD/sodipodi-0.dtd"
   xmlns:xlink="http://www.w3.org/1999/xlink"
   xmlns="http://www.w3.org/2000/svg"
   xmlns:svg="http://www.w3.org/2000/svg"><sodipodi:namedview
     id="namedview1"
     pagecolor="#ffffff"
     bordercolor="#ffffff"
     borderopacity="1"
     inkscape:showpageshadow="0"
     inkscape:pageopacity="0"
     inkscape:pagecheckerboard="1"
     inkscape:deskcolor="#d1d1d1"
     inkscape:document-units="mm"
     inkscape:zoom="0.72159091"
     inkscape:cx="397.03937"
     inkscape:cy="561.25984"
     inkscape:window-width="1920"
     inkscape:window-height="1002"
     inkscape:window-x="-8"
     inkscape:window-y="-8"
     inkscape:window-maximized="1"
     inkscape:current-layer="layer1" /><defs
     id="defs1"><inkscape:path-effect
       effect="spiro"
       id="path-effect3"
       is_visible="true"
       lpeversion="1" /><clipPath
       clipPathUnits="userSpaceOnUse"
       id="clipPath1"><path
         style="fill:none;stroke:#000000;stroke-width:0.264583px;stroke-linecap:butt;stroke-linejoin:miter;stroke-opacity:1"
         d="m 173.43333,187.73333 c 13.77599,4.92119 26.94275,-40.28019 8.06666,-47.3 C 184.56523,129.54626 169.4,124.66666 169.4,124.66666 L 195.06666,107.06667 184.8,91.300001 l -38.86667,8.433332 -89.099997,30.433327 11,55.36667 L 145.93333,211.2 Z"
         id="path2"
         sodipodi:nodetypes="cccccccccc" /></clipPath></defs><g
     inkscape:label="Layer 1"
     inkscape:groupmode="layer"
     id="layer1"><image
       width="270.93332"
       height="270.93332"
       preserveAspectRatio="none"
       style="image-rendering:optimizeQuality"
       xlink:href="Gemini_Generated_Image_h7t37vh7t37vh7t3.png"
       id="image1"
       x="-78.816658"
       y="21.83334"
       clip-path="url(#clipPath1)"
       transform="translate(102.66667,-89.466667)" /><path
       style="fill:none;stroke:#001dff;stroke-width:1.465;stroke-linecap:round;stroke-linejoin:round;stroke-dasharray:none;stroke-opacity:1"
       d="m 12.1,99.366667 c 8.692485,-0.107188 17.380779,-0.553874 26.038425,-1.338699 3.903993,-0.353901 7.821532,-0.780154 11.604383,-1.80799 3.782851,-1.027835 7.451049,-2.686885 10.399178,-5.270476 3.536129,-3.098885 5.934524,-7.599531 6.047597,-12.300011 0.05822,-2.420067 -0.504857,-4.903906 -1.902177,-6.880674 -0.698661,-0.988384 -1.59977,-1.838827 -2.650198,-2.440184 -1.050428,-0.601356 -2.250991,-0.949364 -3.461344,-0.95806 -1.478207,-0.01062 -2.954761,0.494233 -4.118629,1.405617 -1.163867,0.911384 -2.007704,2.222949 -2.357237,3.659276 -0.41392,1.700912 -0.135951,3.523459 0.560717,5.129411 0.696669,1.605953 1.791751,3.012275 3.018237,4.261339 3.551485,3.616863 8.274625,6.005228 13.243625,7.007116 1.817293,0.366417 3.680828,0.554438 5.528568,0.40386 1.847739,-0.150578 3.682691,-0.648426 5.281726,-1.586457 2.076333,-1.218026 3.661447,-3.108892 5.138488,-5.009706 1.477041,-1.900815 2.915119,-3.875573 4.811973,-5.357697 3.216507,-2.513248 7.410038,-3.354694 11.461828,-3.850001 2.84682,-0.348007 5.80462,-0.552023 8.52151,0.366668 1.52606,0.516023 2.96729,1.413832 3.8755,2.74436 0.4541,0.665263 0.76712,1.431439 0.87113,2.230167 0.10401,0.798728 -0.005,1.629261 -0.34663,2.358807 -0.52036,1.112009 -1.54535,1.92695 -2.66857,2.42263 -1.12323,0.495681 -2.34921,0.704873 -3.56477,0.87737 -3.4909,0.495384 -7.03737,0.723363 -10.545154,0.366665 -1.529295,-0.15551 -3.090001,-0.420024 -4.587251,-0.07193 -0.748625,0.174047 -1.470814,0.506864 -2.033623,1.030294 -0.562808,0.523429 -0.955642,1.247258 -1.004548,2.014291 -0.05014,0.78637 0.264768,1.57324 0.78219,2.167519 0.517422,0.594278 1.224316,1.004904 1.974332,1.246499 1.500032,0.483189 3.119659,0.311317 4.692544,0.213328 4.32488,-0.269434 8.74398,0.05128 12.92151,-1.1 3.49346,-0.962758 6.70189,-2.964958 9.05834,-5.717835 2.64761,-3.093017 4.15146,-6.983356 6.34166,-10.415499 1.09652,-1.71829 2.37535,-3.332051 3.90304,-4.681509 1.52768,-1.349458 3.31182,-2.430851 5.26363,-3.01849 1.81462,-0.546337 3.76278,-0.656457 5.62155,-0.287239 1.85877,0.369218 3.6237,1.22018 5.04976,2.468253 2.00422,1.754069 3.26547,4.191798 4.36202,6.618985 1.43578,3.178071 2.67755,6.468649 3.3,9.899999 0.63853,3.519982 0.60747,7.19109 -0.36667,10.633334 -0.14787,0.522508 -0.31696,1.038732 -0.48692,1.554477 -0.811,2.460994 -1.66136,4.952364 -3.14249,7.078494 -0.74057,1.06307 -1.63736,2.02591 -2.69748,2.77068 -1.06013,0.74477 -2.28777,1.26693 -3.5731,1.42968 -2.01098,0.25463 -4.10643,-0.40779 -5.65357,-1.71745 -1.54714,-1.30967 -2.53912,-3.23651 -2.77977,-5.24921 -0.24067,-2.01287 0.25025,-4.07835 1.21368,-5.861993 0.96342,-1.783643 2.3819,-3.296229 3.99264,-4.527117 3.09354,-2.364003 6.88202,-3.705987 10.73088,-4.29318 2.25222,-0.343606 4.53481,-0.440223 6.79613,-0.717715 2.35839,-0.289404 4.69316,-0.77606 6.96667,-1.466667 1.36948,-0.415997 2.71652,-0.905831 4.03333,-1.466665"
       id="path3"
       inkscape:path-effect="#path-effect3"
       inkscape:original-d="m 12.1,99.366667 c 8.700425,-0.17109 17.489936,0.228385 26.038425,-1.338699 7.578414,-1.389253 16.173368,-2.04148 22.003561,-7.078466 3.457224,-2.986863 6.515599,-7.755265 6.047597,-12.300011 -0.445033,-4.321694 -3.701691,-9.748342 -8.013719,-10.278918 -2.719925,-0.334675 -5.741032,2.424814 -6.475866,5.064893 -0.898252,3.2272 1.359706,6.881444 3.578954,9.39075 3.3087,3.74115 8.338049,6.069555 13.243625,7.007116 3.560484,0.680485 7.558057,0.41836 10.810294,-1.182597 4.2975,-2.115502 5.904868,-7.80283 9.950461,-10.367403 3.404046,-2.157886 7.471174,-3.285484 11.461828,-3.850001 2.8151,-0.398224 6.07811,-1.087007 8.52151,0.366668 2.4499,1.457539 5.16514,4.587251 4.4,7.333334 -0.63102,2.264725 -3.96186,2.693725 -6.23334,3.3 -3.39821,0.907011 -7.10037,-0.343237 -10.545154,0.366665 -2.671972,0.55064 -7.51436,0.246798 -7.625422,2.972656 -0.112432,2.759478 4.733977,3.12173 7.449066,3.627346 4.24969,0.791396 8.82367,0.276167 12.92151,-1.1 3.38489,-1.136739 6.55396,-3.172687 9.05834,-5.717835 2.85091,-2.89732 3.69359,-7.331696 6.34166,-10.415499 2.59972,-3.027488 5.29876,-6.718424 9.16667,-7.699999 3.51909,-0.893053 7.66431,0.146442 10.67131,2.181014 2.18847,1.480747 3.20741,4.242244 4.36202,6.618985 1.51998,3.128845 2.80206,6.457318 3.3,9.899999 0.50768,3.510027 0.22989,7.137316 -0.36667,10.633334 -0.0913,0.535248 -0.22683,1.077837 -0.48692,1.554477 -2.34562,4.298594 -4.53706,10.826834 -9.41307,11.278854 -3.63067,0.33658 -7.68074,-3.39894 -8.43334,-6.96666 -0.79952,-3.790138 2.35474,-7.76749 5.20632,-10.38911 2.83616,-2.607447 6.99136,-3.366577 10.73088,-4.29318 2.21111,-0.547883 4.54594,-0.362989 6.79613,-0.717715 2.34418,-0.369543 4.68474,-0.815098 6.96667,-1.466667 1.3756,-0.39278 2.43596,-0.495758 4.03333,-1.466665"
       sodipodi:nodetypes="caaaaaaaaaaaaaaaaaaaaaaaaaaaaaaac"
       transform="translate(0.52916667,1.0583333)" /></g></svg>
