<?xml version="1.0" encoding="UTF-8" standalone="no"?>
<!-- Created with Inkscape (http://www.inkscape.org/) -->

<svg
   width="374.89398mm"
   height="206.51418mm"
   viewBox="0 0 374.89397 206.51417"
   version="1.1"
   id="svg1"
   xml:space="preserve"
   inkscape:version="1.3.2 (091e20e, 2023-11-25, custom)"
   sodipodi:docname="phone-illustration.svg"
   inkscape:export-filename="..\src\pages\phone-illustration.png"
   inkscape:export-xdpi="30.9677"
   inkscape:export-ydpi="30.9677"
   xmlns:inkscape="http://www.inkscape.org/namespaces/inkscape"
   xmlns:sodipodi="http://sodipodi.sourceforge.net/DTD/sodipodi-0.dtd"
   xmlns:xlink="http://www.w3.org/1999/xlink"
   xmlns="http://www.w3.org/2000/svg"
   xmlns:svg="http://www.w3.org/2000/svg"><sodipodi:namedview
     id="namedview1"
     pagecolor="#505050"
     bordercolor="#ffffff"
     borderopacity="1"
     inkscape:showpageshadow="0"
     inkscape:pageopacity="0"
     inkscape:pagecheckerboard="1"
     inkscape:deskcolor="#d1d1d1"
     inkscape:document-units="mm"
     inkscape:zoom="0.35355339"
     inkscape:cx="1738.0685"
     inkscape:cy="243.24473"
     inkscape:window-width="1920"
     inkscape:window-height="1002"
     inkscape:window-x="-8"
     inkscape:window-y="-8"
     inkscape:window-maximized="1"
     inkscape:current-layer="layer1" /><defs
     id="defs1"><clipPath
       clipPathUnits="userSpaceOnUse"
       id="clipPath3"><path
         id="path4"
         style="fill:#000000;stroke-width:1"
         d="m 141.43009,81.35834 c -12.10364,-0.36966 -23.80368,7.682271 -21.35787,14.698328 l 0.2744,0.787549 -6.78822,0.138492 C 81.404361,97.63698 54.018785,116.3893 43.062966,139.40441 c -2.732142,5.07935 -4.283641,10.27119 -5.746419,17.56223 0.284489,4.51677 0.668575,7.86073 1.157552,10.619 0.681661,4.41919 2.030909,8.80201 4.18269,13.06121 12.35196,24.44928 21.374821,31.10194 44.798299,33.02951 42.597412,3.50545 89.443422,-39.88567 78.792602,-72.98159 -2.24647,-6.9806 -4.26932,-12.44745 -6.29677,-17.02325 -0.19878,-0.49436 -0.41448,-0.93841 -0.6227,-1.40302 -4.2717,-9.19723 -8.6698,-14.17477 -15.33446,-18.27847 l -2.19884,-1.35392 1.1405,-0.43873 c 16.13786,-6.205371 15.11746,-20.33136 -1.50533,-20.83904 z m -0.65371,4.386812 c 2.7878,0.0206 5.32495,0.638686 7.01663,1.98851 2.57979,2.058465 1.03644,5.866539 -3.44062,8.490437 -0.6197,0.363133 -1.7388,0.901326 -2.48719,1.19631 l -1.36115,0.536401 -0.006,-1.120345 c -0.021,-4.044801 -4.96335,-7.119661 -10.11153,-6.290572 -1.92952,0.310742 -2.49647,0.684786 -4.36872,2.883028 -1.48329,1.741541 -1.98993,1.437903 -0.95136,-0.570508 2.22957,-4.311596 9.57648,-7.158576 15.70963,-7.113261 z m -24.95041,12.544971 c 0.33192,0.0025 0.6541,0.03165 0.98443,0.03876 -3.43597,-0.019 -6.87192,0.123129 -10.3079,0.479557 3.15132,-0.366406 6.27045,-0.541394 9.32347,-0.518315 z" /></clipPath><clipPath
       clipPathUnits="userSpaceOnUse"
       id="clipPath6"><path
         id="path7"
         style="fill:#000000;stroke-width:1"
         d="m 78.667509,124.18673 c -12.775578,0.0307 -12.250679,0.352 -14.521079,1.89033 -3.40142,2.30467 -4.31486,4.55322 -4.61263,11.35228 -0.179451,4.09727 -0.224621,4.37388 -0.75293,4.60592 -0.830961,0.36497 -0.997939,5.0322 -0.20257,5.66167 0.586761,0.46438 0.50266,2.12596 -0.10749,2.12596 -0.19196,0 -0.420891,0.22724 -0.509011,0.50488 -0.150928,0.47555 -0.254068,0.45638 -1.780249,-0.33073 -4.746259,-2.44782 -6.514999,-1.10445 -8.04396,6.10971 -1.103781,5.20803 -2.175341,8.05382 -4.937681,13.11186 -1.5383,2.81674 -2.18794,4.34875 -2.83755,6.69417 -1.536279,5.54667 -3.460369,10.9048 -6.167588,17.17362 -2.326431,5.38708 -2.540421,6.22138 -2.84788,11.10837 -0.463791,7.37156 -1.014061,12.61821 -1.967841,18.76526 -0.753991,4.85937 -0.926039,6.7123 -0.926039,9.96219 0,7.82903 2.321348,4.75536 -9.925672,22.44151 -6.006269,7.71571 39.926051,35.3808 50.136991,20.71243 1.336911,-1.04128 2.39145,-2.08255 6.61992,-3.12383 7.211669,-2.58033 13.271611,-6.11152 22.535581,-13.13201 l 4.411619,-3.34347 13.44776,-0.0811 13.44775,-0.0811 1.75804,-0.68317 c 3.32994,-1.29369 5.59152,-3.42092 7.16183,-6.73705 l 0.86972,-1.8371 -0.0103,-4.89479 c -0.006,-2.69213 -0.0949,-5.84729 -0.19844,-7.01146 l -0.1881,-2.11667 1.2299,-0.77669 c 3.66964,-2.31748 8.47943,-6.68406 9.31055,-8.4522 2.19026,-4.65956 0.25266,-10.90736 -3.84162,-12.38788 -1.10907,-0.40104 -1.10344,-0.42608 0.32763,-1.5043 7.32327,-5.51761 7.70549,-12.80955 0.90742,-17.30798 l -1.25625,-0.83096 1.94821,-2.09703 c 7.16279,-7.71005 -0.53567,-19.03449 -10.83293,-15.93546 -0.89261,0.26859 -1.23311,0.28688 -1.23611,0.0661 -0.002,-0.16766 -0.0707,-0.55387 -0.15244,-0.85834 -0.1654,-0.61607 2.8951,-2.75765 8.35814,-5.84822 1.52798,-0.86441 4.08781,-2.31206 5.68855,-3.21738 6.66263,-3.76818 9.465,-7.28191 9.04595,-11.34194 -0.47085,-4.56216 -5.17466,-7.24339 -10.12237,-5.77019 -2.0983,0.62478 -10.37988,4.28171 -12.35998,5.45806 -2.22237,1.3203 -1.86079,2.50364 -2.55229,-8.36021 -0.92979,-14.60761 -1.51762,-16.21563 -6.85022,-18.74201 l -1.76734,-0.83716 -27.891839,-0.0718 c -7.81037,-0.0202 -13.54659,-0.0423 -17.805112,-0.032 z"
         sodipodi:nodetypes="csssssssssssssscccccccccccccsssscccccssccscsccccc" /></clipPath></defs><g
     inkscape:label="Layer 1"
     inkscape:groupmode="layer"
     id="layer1"
     transform="translate(85.307489,-43.920115)"><rect
       style="opacity:1;fill:#b3b3b3;stroke:none;stroke-width:1.465;stroke-linecap:round;stroke-linejoin:round;paint-order:markers stroke fill;fill-opacity:1"
       id="rect6"
       width="373.42899"
       height="205.04918"
       x="-84.574989"
       y="44.652615"
       inkscape:export-filename="..\src\pages\rect6.png"
       inkscape:export-xdpi="30.9677"
       inkscape:export-ydpi="30.9677" /><image
       width="313.26666"
       height="228.60001"
       preserveAspectRatio="none"
       style="fill:#ff0000;image-rendering:optimizeQuality"
       xlink:href="Gemini_Generated_Image_w3c42kw3c42kw3c4.png"
       id="image1"
       x="-61.505325"
       y="78.649979"
       clip-path="url(#clipPath6)"
       transform="matrix(-1,0,0,1,198.96666,-49.457431)" /></g></svg>
