<?xml version="1.0" encoding="UTF-8" standalone="no"?>
<!-- Created with Inkscape (http://www.inkscape.org/) -->

<svg
   width="297mm"
   height="210mm"
   viewBox="0 0 297 210"
   version="1.1"
   id="svg1"
   xml:space="preserve"
   inkscape:version="1.3.2 (091e20e, 2023-11-25, custom)"
   sodipodi:docname="schets voor puzzel 5.svg"
   xmlns:inkscape="http://www.inkscape.org/namespaces/inkscape"
   xmlns:sodipodi="http://sodipodi.sourceforge.net/DTD/sodipodi-0.dtd"
   xmlns:xlink="http://www.w3.org/1999/xlink"
   xmlns="http://www.w3.org/2000/svg"
   xmlns:svg="http://www.w3.org/2000/svg"><sodipodi:namedview
     id="namedview1"
     pagecolor="#505050"
     bordercolor="#ffffff"
     borderopacity="1"
     inkscape:showpageshadow="0"
     inkscape:pageopacity="0"
     inkscape:pagecheckerboard="1"
     inkscape:deskcolor="#d1d1d1"
     inkscape:document-units="mm"
     inkscape:zoom="0.36079545"
     inkscape:cx="766.3622"
     inkscape:cy="559.87402"
     inkscape:window-width="1920"
     inkscape:window-height="1002"
     inkscape:window-x="-8"
     inkscape:window-y="-8"
     inkscape:window-maximized="1"
     inkscape:current-layer="layer1" /><defs
     id="defs1"><inkscape:path-effect
       effect="fill_between_many"
       method="originald"
       linkedpaths="#path1-8,0,1|"
       id="path-effect1" /></defs><g
     inkscape:label="Layer 1"
     inkscape:groupmode="layer"
     id="layer1"><image
       width="336.26999"
       height="336.26999"
       preserveAspectRatio="none"
       style="image-rendering:optimizeQuality"
       xlink:href="Gemini_Generated_Image_lgt0welgt0welgt0.png"
       id="image1"
       x="-19.053312"
       y="-63.648182" /><image
       width="270.93332"
       height="270.93332"
       preserveAspectRatio="none"
       style="image-rendering:optimizeQuality"
       xlink:href="Gemini_Generated_Image_fb2xa3fb2xa3fb2x.png"
       id="image1-7"
       x="-355.97791"
       y="128.21346" /><image
       width="270.93332"
       height="270.93332"
       preserveAspectRatio="none"
       style="image-rendering:optimizeQuality"
       xlink:href="Gemini_Generated_Image_6hbgxi6hbgxi6hbg.png"
       id="image1-72"
       x="-419.11075"
       y="-191.46951" /><g
       id="g2"
       transform="matrix(0.74337316,0,0,0.66466395,396.12911,336.69345)"
       inkscape:export-filename="g2.png"
       inkscape:export-xdpi="30.9677"
       inkscape:export-ydpi="30.9677"><path
         inkscape:original-d="M 0,0"
         inkscape:path-effect="#path-effect1"
         d="m 30.126815,-194.08644 6.1975,-6.61458 1.70407,-2.64583 -1.7347,-3.175 -4.46729,-7.14375 -16.52951,-26.72291 -4.90154,-7.9375 -2.2779399,-3.12274 -3.91976,0.42423 -9.78958,1.90476 c 1.65003,-3.52991 5.66068997,-7.19788 6.08541997,-11.1125 -2.47868997,0.4268 -4.84360997,1.81749 -7.14374997,2.79896 -4.6667701,1.99128 -9.3327501,3.99387 -14.0229201,5.92943 -8.05258,3.32317 -16.0084,6.87729 -24.07708,10.16196 -4.68846,1.90862 -10.19922,3.43866 -14.55106,6.00314 -3.45714,2.03723 -6.29283,7.88327 -8.69879,11.08984 -0.82267,1.09643 -2.48455,2.5673 -2.68524,3.96875 -0.15821,1.10489 0.93815,2.31829 1.50543,3.175 1.56297,2.36039 3.08372,4.75313 4.6,7.14375 6.18861,9.75722 12.45037,19.49044 18.85952,29.10416 3.56914,5.35371 7.01427,10.78598 10.58333,16.13958 1.57086,2.3563 4.28392,5.21254 5.06853,7.9375 0.48037,1.66833 0.13495,3.82942 0.13495,5.55625 0,3.36159 0.22377,6.71006 0.26356,10.05417 0.018,1.51575 -0.5641,4.40533 0.27295,5.71753 0.74808,1.17271 3.02045,1.81646 4.22599,2.41921 3.65872,1.82938 7.35826,3.73383 11.11249,5.35701 9.8387301,4.25384 19.5154201,9.29387 29.10417,14.08825 3.14689,1.57345 6.34891,3.0087 9.525,4.5173 1.33195,0.63266 2.73491,1.72507 4.23333,1.91333 1.73257,0.21767 3.95408,-2.3656 5.29167,-3.32097 4.81372,-3.43819 9.55507,-7.00052 14.2875,-10.54984 9.93507,-7.4513 20.05971,-14.66004 30.1625,-21.88245 2.91886,-2.08666 5.86059,-4.14286 8.73125,-6.29567 1.06673,-0.79998 2.781,-1.63861 3.43223,-2.83633 0.63422,-1.1664 0.28627,-3.18175 0.27092,-4.4732 -0.0387,-3.25631 -0.26357,-6.51597 -0.26357,-9.78959 0,-1.37369 0.37808,-3.43168 -0.1964,-4.70615 -0.58383,-1.29521 -2.83739,-1.87029 -4.03693,-2.40065 -3.61403,-1.59787 -7.1991,-3.27909 -10.84792,-4.79638 -14.89794,-6.19497 -30.16015,-10.97034 -45.50833,-15.87807 z"
         id="path2"
         style="fill:#ffffff" /><text
         xml:space="preserve"
         style="font-style:normal;font-weight:normal;font-size:37.4104px;line-height:1.25;font-family:sans-serif;letter-spacing:0px;word-spacing:0px;fill:#000000;fill-opacity:1;stroke:none;stroke-width:0.935262"
         x="106.24389"
         y="-121.61267"
         id="text2"
         transform="matrix(0.61848357,-0.28060266,0.79888829,1.2544065,0,0)"><tspan
           sodipodi:role="line"
           id="tspan2"
           style="font-style:normal;font-variant:normal;font-weight:normal;font-stretch:normal;font-family:'Cabin Sketch';-inkscape-font-specification:'Cabin Sketch';stroke-width:0.935262"
           x="106.24389"
           y="-121.61267">/P13</tspan></text><path
         style="fill:#3b3b3b;stroke:none"
         d="m 30.126815,-194.08644 6.1975,-6.61458 1.70407,-2.64583 -1.7347,-3.175 -4.46729,-7.14375 -16.52951,-26.72291 -4.90154,-7.9375 -2.2779399,-3.12274 -3.91976,0.42423 -9.78958,1.90476 c 1.65003,-3.52991 5.66068997,-7.19788 6.08541997,-11.1125 -2.47868997,0.4268 -4.84360997,1.81749 -7.14374997,2.79896 -4.6667701,1.99128 -9.3327501,3.99387 -14.0229201,5.92943 -8.05258,3.32317 -16.0084,6.87729 -24.07708,10.16196 -4.68846,1.90862 -10.19922,3.43866 -14.55106,6.00314 -3.45714,2.03723 -6.29283,7.88327 -8.69879,11.08984 -0.82267,1.09643 -2.48455,2.5673 -2.68524,3.96875 -0.15821,1.10489 0.93815,2.31829 1.50543,3.175 1.56297,2.36039 3.08372,4.75313 4.6,7.14375 6.18861,9.75722 12.45037,19.49044 18.85952,29.10416 3.56914,5.35371 7.01427,10.78598 10.58333,16.13958 1.57086,2.3563 4.28392,5.21254 5.06853,7.9375 0.48037,1.66833 0.13495,3.82942 0.13495,5.55625 0,3.36159 0.22377,6.71006 0.26356,10.05417 0.018,1.51575 -0.5641,4.40533 0.27295,5.71753 0.74808,1.17271 3.02045,1.81646 4.22599,2.41921 3.65872,1.82938 7.35826,3.73383 11.11249,5.35701 9.8387301,4.25384 19.5154201,9.29387 29.10417,14.08825 3.14689,1.57345 6.34891,3.0087 9.525,4.5173 1.33195,0.63266 2.73491,1.72507 4.23333,1.91333 1.73257,0.21767 3.95408,-2.3656 5.29167,-3.32097 4.81372,-3.43819 9.55507,-7.00052 14.2875,-10.54984 9.93507,-7.4513 20.05971,-14.66004 30.1625,-21.88245 2.91886,-2.08666 5.86059,-4.14286 8.73125,-6.29567 1.06673,-0.79998 2.781,-1.63861 3.43223,-2.83633 0.63422,-1.1664 0.28627,-3.18175 0.27092,-4.4732 -0.0387,-3.25631 -0.26357,-6.51597 -0.26357,-9.78959 0,-1.37369 0.37808,-3.43168 -0.1964,-4.70615 -0.58383,-1.29521 -2.83739,-1.87029 -4.03693,-2.40065 -3.61403,-1.59787 -7.1991,-3.27909 -10.84792,-4.79638 -14.89794,-6.19497 -30.16015,-10.97034 -45.50833,-15.87807 m -30.69166993,-65.08749 c -1.10516997,3.01862 -3.92394997,8.36183 -6.43614997,10.39838 -3.7033301,3.00216 -10.0932901,4.56616 -14.4659301,6.49801 -10.76224,4.75478 -21.46724,9.64411 -32.27916,14.28464 -4.68182,2.00945 -9.38596,4.724 -14.2875,6.12522 v 0.26458 l 13.75833,-5.85758 30.1625,-13.27326 17.4625001,-7.59207 15.08206,23.28333 9.2595999,14.2875 h 0.26459 l -6.79097,-10.58333 -10.67234993,-16.40417 -6.61376997,-10.58333 10.05417,-1.90783 3.86851,-0.56794 2.16689,3.00493 4.8662099,7.9375 16.19797,26.19375 4.46729,7.14375 1.76532,3.175 -1.82309,2.64583 -6.1091,6.61458 h -0.26458 l -0.52917,-0.52916 0.26458,0.79375 c -6.60668,4.45698 -13.69877,9.55776 -20.9020799,12.96458 v 0.26458 l 21.4312499,-12.96458 c 3.1e-4,2.90851 1.93466,9.73363 -1.5875,10.58333 l -0.79375,-1.85208 c -1.12852,1.12777 -2.25152,2.38743 -3.70417,3.10517 -1.02985,0.50884 -2.23614,0.45459 -3.1503,1.21125 -2.28238,1.88916 -3.98586,4.46694 -6.3747,6.35551 -7.4879999,5.91985 -15.7807799,9.94999 -24.34166,14.01904 -3.20131,1.52161 -6.19213,3.72952 -9.525,4.94236 l 0.26458,2.91042 -9.26041,-5.29167 24.0770801,-14.82994 12.96458,-7.92422 v -0.26459 c -9.35884,4.37456 -18.2439301,11.07358 -26.9875001,16.58444 -3.15109,1.98605 -6.36973,4.42962 -9.78958,5.90515 0.69524,-3.0385 4.83638,-6.95612 4.47342,-10.05417 -0.15925,-1.35927 -1.61688,-2.85893 -2.35675,-3.96875 -1.9905,-2.98575 -3.91916,-6.01074 -5.90903,-8.99583 -5.9186,-8.87876 -11.59939,-17.94311 -17.26202,-26.9875 -1.71995,-2.74712 -3.46587,-5.47741 -5.22083,-8.20208 -0.74879,-1.16254 -1.41908,-2.741 -2.58908,-3.54452 -2.60216,-1.78707 -8.8263,-0.68881 -11.88154,-0.68881 l 7.05555,-9.78959 2.99861,-4.18923 10.58334,-4.32154 25.92916,-10.892 14.2875001,-6.04133 8.20207997,-3.39548 m -68.52708007,37.83542 v 0.26458 l 1.05834,-0.26458 h -1.05834 m -0.52916,1.32291 c 2.48781,0.73537 5.61384,0.26459 8.20208,0.26459 1.08509,0 2.69365,-0.29298 3.60393,0.42423 2.96296,2.33451 5.01215,7.78441 7.07025,10.95285 5.81864,8.95776 11.36572,18.09375 17.28346,26.98749 2.04193,3.06881 3.96843,6.21246 6.04254,9.26042 0.75105,1.10368 2.30232,2.61415 2.48027,3.96875 0.13111,0.99806 -0.78926,2.07106 -1.22248,2.91042 -1.19033,2.30622 -2.11558,5.14398 -3.77255,7.14375 l -30.11167,-46.0375 -7.30687,-11.37708 -2.26896,-4.49792 m 87.57708,9.26042 c 2.1404,5.64709 6.94484,11.13835 10.31875,16.13958 h 0.26458 l -5.99437,-9.525 -4.58896,-6.61458 m 71.43749,39.42291 c -1.0686,1.4857 -3.65635,4.31918 -5.55625,4.59917 -1.50675,0.22206 -3.42014,-1.05021 -4.7625,-1.61342 -2.71185,-1.1378 -5.6758,-1.86973 -8.46666,-2.80916 -4.36949,-1.47081 -8.24335,-2.72182 -12.14613,-5.29595 -2.03715,-1.34363 -3.27247,-3.30203 -5.58096,-4.45627 -7.50803,-3.75401 -14.59669,-4.44176 -22.75416,-2.85979 l -0.52917,-9.525 c 5.91981,0.27053 12.62119,3.66478 18.25625,5.46521 10.33404,3.30176 20.49982,7.11918 30.42708,11.50507 3.67975,1.62573 7.63193,2.96631 11.1125,4.99014 m -33.07291,-6.61458 -3.70417,1.05833 v 0.26458 c 1.08012,-0.4026 3.00366,-1.30076 4.09738,-0.52182 1.62562,1.15777 0.88273,6.28232 -0.6578,7.13641 l 0.26459,-0.79375 c -1.20728,1.07768 -4.72212,3.98498 -6.08542,2.11666 h -0.26458 c 1.12365,2.33956 4.15278,-0.26591 5.82083,-0.79375 v 0.26459 c -1.58469,0.95746 -4.02851,3.06778 -6.0501,2.22139 -1.14078,-0.47762 -0.99003,-1.74618 -0.98912,-2.75056 0.003,-3.39595 1.2782,-4.61997 3.86422,-6.87917 -3.86429,2.2337 -4.97032,5.31823 -3.96875,9.525 -4.32976,-1.38202 -7.92437,-5.70745 -12.96458,-5.20183 -2.42038,0.2428 -4.24147,1.8406 -6.35,2.82058 l 0.26458,-3.43958 h -0.26458 l -0.26458,2.91042 -0.79375,-1.05834 h -0.26459 c 1.45091,3.74265 6.39175,3.38969 9.525,5.023 4.54898,2.37132 10.55352,8.08504 9.09914,13.76242 -0.79086,3.08721 -2.81523,5.12116 -5.13039,7.14375 l 3.70417,-3.43959 h 0.26458 l -0.79375,3.175 h 0.26459 l 1.85208,-6.35 h 0.26458 c -0.002,2.79305 -0.76697,4.87025 -2.38125,7.14375 h -0.26458 l 0.26458,-0.79375 c -0.95615,1.03899 -1.66123,2.38051 -2.69034,3.32709 -3.13363,2.88235 -7.52064,3.8302 -11.59716,4.34583 v -0.26458 l 6.35,-1.32292 v -0.26458 c -2.9881,0.12832 -5.57441,1.48088 -8.46666,1.63914 -8.19208,0.44829 -15.2222,-1.88721 -22.2249999,-5.87248 7.2331299,6.59768 22.8602299,8.71601 31.7499999,4.67982 7.36873,-3.34559 13.1505,-12.45537 7.72885,-20.02565 -2.42456,-3.38543 -6.25532,-6.58198 -10.1101,-8.12021 -1.81992,-0.72621 -3.81581,-0.75707 -5.55625,-1.66937 3.15078,-5.16325 11.09885,-2.318 15.08125,-0.0318 1.49252,0.85681 2.7229,2.31318 4.49791,2.58663 5.73617,0.8837 9.08278,-5.21938 8.20208,-9.96312 l 6.08542,3.40916 19.57917,6.64501 -2.91042,2.64583 c -1.40833,-5.85833 -7.57399,-5.56322 -12.17083,-4.39891 -1.59957,0.40515 -3.83334,0.85472 -4.83068,2.31 -0.77203,1.12652 -0.46099,2.90808 -0.46099,4.20558 -2.19,-0.006 -4.56237,-1.01229 -6.61356,0.22702 -2.66641,1.61101 -6.94815,9.4693 -3.85503,12.28699 1.30068,1.18486 4.5431,1.03028 6.23526,1.24432 -1.72354,2.20155 -5.02828,3.59892 -7.40834,5.02708 -5.04303,3.02608 -10.04533,6.1172 -15.08124,9.15487 -1.93868,1.16941 -5.3408,4.16383 -7.67292,4.0743 -2.8229,-0.10836 -6.6633,-2.37301 -9.26042,-3.47918 -5.88838,-2.50802 -11.8445099,-4.84638 -17.7270799,-7.36893 -5.69184,-2.44077 -10.98854,-5.83072 -16.4041701,-8.8119 -2.09293,-1.15212 -5.13943,-2.2486 -4.63347,-5.18305 0.1995,-1.15703 1.88857,-1.61277 2.78139,-2.10768 2.94585,-1.633 5.98317,-3.09365 8.9958301,-4.6 6.71569997,-3.35787 13.23218,-6.53887 19.3145899,-11.01656 2.19847,-1.61845 4.42356,-3.36941 6.32611,-5.3327 0.87824,-0.90627 1.48135,-2.22698 2.48067,-2.99166 0.79001,-0.60452 1.95114,-0.38612 2.83508,-0.85337 1.37996,-0.72943 2.31314,-2.03762 3.70397,-2.75913 l 0.52917,1.32291 c -7.23575,4.26801 -14.83304,13.88822 -7.62698,21.96042 3.66682,4.10756 8.99731,5.26946 13.44781,8.20208 v 0.52917 c -3.23262,2.20574 -8.0879,4.69393 -11.90216,1.94497 -1.47768,-1.06499 -1.74617,-3.21805 -3.44469,-4.00386 -1.23354,-0.57068 -2.65296,0.12231 -3.96773,-0.50058 -1.90492,-0.9025 -3.78162,-2.66696 -6.0854199,-2.37024 -1.21836,0.15692 -2.33205,1.21023 -3.17112,2.02992 -3.69316,3.60779 -2.8297,8.1775 1.31904,11.10187 l -2.64584,-3.70417 0.26459,-0.26458 1.32291,0.52917 v -0.26459 l -2.38125,-1.32291 v -1.85209 h 0.26459 v 1.05834 l 0.79375,-0.26459 c -1.72176,-2.61994 1.60561,-6.61855 4.49791,-6.73666 2.7225499,-0.11117 4.4428899,2.23106 6.8791699,2.81303 1.1731,0.28022 2.34789,-0.53123 3.38017,0.33808 2.39083,2.01336 2.60979,4.57714 6.40941,4.88376 3.37406,0.27229 5.49697,-1.10465 8.20188,-2.87243 1.46778,-0.95928 2.93292,-2.36171 1.99581,-4.24642 -1.25655,-2.52717 -4.47929,-3.20324 -6.7581,-4.44318 -1.55583,-0.84656 -2.84933,-2.00984 -4.49792,-2.70076 v 0.26458 c 1.52465,0.6664 2.77908,1.76413 4.23333,2.56335 2.61694,1.43822 6.51823,2.13753 6.87917,5.63874 h -0.26458 c -0.39327,-1.32389 -1.01649,-2.25931 -2.38125,-2.64584 v 0.26459 c 1.06628,0.37123 2.94691,2.02977 1.85208,3.175 v 1.32291 c -6.82666,-4.4961 -18.37381,-7.11742 -16.40417,-17.72708 h 0.26459 c 0.38513,2.07457 0.0833,4.41244 1.5875,6.08542 l -0.79375,-3.70417 h 0.26458 l 0.79375,1.85209 c -0.41558,-3.44169 -2.68801,-5.63918 -0.70066,-9.26042 5.44035,-9.91307 20.10559,-11.24899 29.54024,-7.29605 2.40584,1.008 6.34614,1.96073 7.67292,4.38563 m -21.69583,-5.29166 v 0.26458 h 1.05833 l -1.05833,-0.26458 m 0.52916,0.52916 0.26459,0.26459 -0.26459,-0.26459 m -9.525,2.64584 c 1.74267,-0.91692 3.51231,-2.24509 5.55625,-1.85209 -1.32073,-1.50365 -4.60753,0.70715 -5.55625,1.85209 m 8.90764,-2.29307 0.17639,0.0882 -0.17639,-0.0882 m 8.81945,-0.0882 v 0.26459 h 0.79375 l -0.79375,-0.26459 m -3.96875,0.26459 -0.26459,0.52916 0.26459,-0.52916 m 5.02708,0 v 0.26458 l 1.05833,0.26458 v -0.26458 l -1.05833,-0.26458 m -13.31736,0.88194 0.17639,0.0882 -0.17639,-0.0882 m 7.23194,-0.0882 0.26459,0.26458 -0.26459,-0.26458 m 4.7625,0 v 0.26458 h 0.79375 l -0.79375,-0.26458 m 2.11667,0 0.26458,0.26458 -0.26458,-0.26458 m -1.05833,0.26458 v 0.26458 h 0.79375 l -0.79375,-0.26458 m -5.29167,0.26458 v 0.26459 h 0.79375 l -0.79375,-0.26459 m -9.87778,0.35278 0.17639,0.0882 -0.17639,-0.0882 m 0.35278,0.44097 v 0.26459 l 1.5875,-0.52917 -1.5875,0.26458 m -4.23333,0 -0.79375,1.05834 0.79375,-1.05834 m 1.5875,0.26459 v 0.26458 h 0.79375 l -0.79375,-0.26458 m 1.05833,0.26458 v 0.26458 l 1.32292,-0.26458 h -1.32292 m -1.5875,0 0.26458,0.26458 -0.26458,-0.26458 m -0.52917,0.26458 0.26459,0.26459 -0.26459,-0.26459 m 26.9875,0 v 0.26459 l 1.32292,0.52916 -1.32292,-0.79375 m -27.51666,0.26459 0.26458,0.26458 -0.26458,-0.26458 m 25.92916,0.26458 v 0.26458 l 1.05833,-0.26458 h -1.05833 m 1.5875,0.26458 0.26458,0.26459 -0.26458,-0.26459 m -5.82083,0.52917 -0.26459,0.52917 h 0.52917 l -0.26458,-0.52917 m 0.79375,0.26458 -0.26459,0.52917 0.26459,-0.52917 m -17.99167,4.7625 h 0.26459 c 2.41015,-3.08921 5.88608,-3.43958 9.525,-3.43958 -3.05533,-1.28209 -8.37432,0.43013 -9.78959,3.43958 m 19.05,-3.70416 0.26458,0.26458 -0.26458,-0.26458 m 1.5875,7.9375 h 0.26458 c 0.0595,-0.99321 -0.60402,-1.95699 -0.42341,-2.91042 0.53352,-2.81643 4.44647,-5.08698 6.77341,-3.70417 -1.67662,-3.32424 -6.26397,1.07657 -7.07923,3.175 -0.46019,1.18449 0.2586,2.27939 0.46465,3.43959 m -10.58333,-7.67292 v 0.26458 l 2.38125,0.52917 -2.38125,-0.79375 m 9.78958,0 -1.32292,1.5875 1.32292,-1.5875 m -1.32292,0.52917 0.26459,0.26458 -0.26459,-0.26458 m -25.92916,0.26458 v 1.32292 h 0.26458 l -0.26458,-1.32292 m 20.10833,0 v 0.26458 l 5.55625,3.175 c -1.31916,-1.59614 -3.54189,-2.95668 -5.55625,-3.43958 m 14.02292,0.52917 v 4.23333 h 0.26458 l 0.26458,-4.23333 h -0.52916 m -35.36597,0.97014 0.0882,0.17638 -0.0882,-0.17638 m 0.97014,0.35277 v 2.64584 h 0.26458 l -0.26458,-2.64584 m -1.32292,0.26459 v 0.79375 h 0.26458 l -0.26458,-0.79375 m 7.14375,0.52916 v 1.85209 h 0.26458 l -0.26458,-1.85209 m -7.40833,0.52917 v 1.85208 h 0.26458 l -0.26458,-1.85208 m 69.58541,1.85208 0.26458,12.96459 -0.27193,5.26778 -5.01973,4.02979 -11.64167,8.33152 -24.34167,17.68625 -19.57916,14.42632 -0.52917,-20.37292 h -0.26458 l 0.26458,20.37292 c -13.78876,-5.34962 -27.2320599,-12.80235 -40.48125,-19.38011 -5.48976,-2.72548 -11.3031,-6.43837 -17.19791,-8.13656 l -0.52917,-21.43124 c 5.87791,1.8607 11.83164,6.60163 17.19792,9.67812 8.5738401,4.91538 17.3628801,8.84542 26.45833,12.65916 3.15467,1.32275 6.34165,2.5521 9.525,3.80277 1.41777,0.55701 3.22265,1.57098 4.7625,1.60465 1.60726,0.0351 3.41915,-1.50621 4.7625,-2.27039 3.84641,-2.18811 7.58825,-4.56251 11.37708,-6.84793 10.57615,-6.37954 20.85549,-13.03403 30.69167,-20.51296 4.87638,-3.70777 9.253,-8.82328 14.55208,-11.87176 m -69.32083,0.52917 0.26458,1.32292 h 0.26459 l -0.52917,-1.32292 m 58.20833,5.82083 1.05833,-0.26458 c 0.27526,2.49478 -3.61434,4.71441 -5.55625,5.82083 l 0.79375,-2.91041 v -0.26459 c -1.1771,0.24237 -1.73725,-0.0277 -2.64583,-0.79375 0.9877,1.36483 3.02943,4.87732 -0.26458,5.02709 -0.25864,1.20696 -1.42204,0.62993 -2.38125,0.52916 v 0.26459 l 1.5875,0.52916 -3.96875,-1.05833 2.38125,0.26458 v -0.26458 c -3.05616,-0.45816 -6.14483,-4.15911 -5.02709,-7.14375 l -0.79375,2.91042 h -0.52916 c -0.0172,-0.83437 -0.49364,-2.30896 0.0112,-3.02576 1.80434,-2.56169 7.42877,0.68034 8.98459,1.96742 -2.16502,-2.80346 -5.73541,-3.25151 -8.99583,-2.64583 2.12346,-2.85777 8.32018,-3.71098 11.64166,-3.08906 1.85645,0.34761 5.01724,1.98758 3.70417,4.14739 m -57.0618,-4.05694 0.0882,0.17638 -0.0882,-0.17638 m 3.88055,1.14653 1.32292,1.05833 v -0.26458 l -1.32292,-0.79375 m 43.30348,0.0882 0.17638,0.0882 -0.17638,-0.0882 m 1.14652,0.97014 2.11667,-0.52917 c -0.90878,-0.47455 -1.45717,-0.19913 -2.11667,0.52917 m -2.55764,-0.61735 0.0882,0.17637 -0.0882,-0.17637 m 0.70556,-0.1764 0.26458,0.26458 -0.26458,-0.26458 m -14.55209,0.26458 c 1.36782,1.82137 6.04284,2.70909 8.20209,3.43959 v -0.26459 l -8.20209,-3.175 m 21.43125,0 v 0.26459 l 0.52917,0.26458 -1.05833,0.52917 v 0.26458 l 1.5875,-0.52917 -1.05834,-0.79375 m -0.52916,0.26459 0.26458,0.26458 -0.26458,-0.26458 m -0.52917,0.26458 0.26458,0.26458 -0.26458,-0.26458 m -53.975,0.26458 c 0.71189,1.49492 2.13768,2.44619 3.70417,2.91042 v -0.26458 l -3.70417,-2.64584 m 53.44583,0 -0.26458,0.79375 h 0.26458 v -0.79375 m 0.44098,0.61736 0.17638,0.0882 -0.17638,-0.0882 m -9.17223,0.44098 v 0.26458 c 3.65522,0.62856 8.38189,1.92647 8.20209,6.61458 2.2813,-4.2986 -5.13469,-6.98545 -8.20209,-6.87916 m -56.0916599,5.02708 7.9374999,-4.7625 c -1.86964,-0.30557 -6.9755999,3.17721 -7.9374999,4.7625 m 28.0458299,-5.02708 v 0.26458 c 1.9785,0.38279 3.84307,1.93672 4.7625,3.70417 0.26886,-2.01881 -3.05952,-3.78378 -4.7625,-3.96875 m 41.80417,0.52916 -3.43959,2.11667 v 0.26458 c 1.12264,-0.35773 3.1007,-1.18213 3.43959,-2.38125 m -59.26667,0.52917 v 0.26458 l 11.64167,5.82084 v -0.26459 l -11.1125,-6.08541 -0.52917,0.26458 m 17.72709,-0.26458 0.52916,0.52916 -0.52916,-0.52916 m 0.79375,0.52916 2.91041,2.64584 -2.91041,-2.64584 m 35.71874,0 -0.26458,0.52917 0.26458,-0.52917 m -44.97916,0.79375 0.26458,0.26459 -0.26458,-0.26459 m 1.23472,0.0882 0.17639,0.0882 -0.17639,-0.0882 m -0.70555,0.1764 0.52916,0.52916 -0.52916,-0.52916 m -8.20209,0.26458 v 0.26458 l 3.18542,3.47164 10.04375,4.73045 c -1.70176,-2.88599 -6.82986,-3.29144 -9.52398,-4.98565 -1.48291,-0.93253 -2.15207,-2.6386 -3.70519,-3.48102 m 10.05417,0 0.26458,0.26458 -0.26458,-0.26458 m -1.05833,0.26458 0.26458,0.26459 -0.26458,-0.26459 m 0.52916,0.26459 0.26459,0.26458 -0.26459,-0.26458 m 34.13125,7.14375 2.11667,-3.43959 h 0.26458 c 0.60846,2.45334 0.15385,5.68386 -2.64583,6.35 v -2.38125 l -1.32292,3.43959 0.26458,-1.5875 h -0.26458 c -0.302,1.52846 -0.64928,2.51036 -2.38125,2.38125 v 0.26458 h 0.52917 v 0.26458 l -7.67292,-0.52916 v 0.26458 l 6.61458,0.79375 v 0.26458 l -7.67291,-0.79375 c -0.0241,-2.9155 -0.79059,-5.10078 2.11666,-6.87916 v -0.26459 l -2.11666,1.32292 c 0.82731,-2.09955 2.27575,-5.43633 4.49893,-6.34754 1.95641,-0.80188 8.87599,-0.37587 9.54317,2.11912 0.39408,1.47374 -1.22,3.51981 -1.87127,4.75759 m -33.07291,-6.61459 0.26458,0.26459 -0.26458,-0.26459 m 25.13541,1.05834 0.26458,0.26458 -0.26458,-0.26458 m 5.29167,0 -1.05834,1.05833 1.05834,-1.05833 m -4.49792,0.26458 0.26458,0.26458 -0.26458,-0.26458 m -50.0062499,0.26458 -11.64166,7.03168 -5.02709,3.55166 c 4.47993,-1.93044 8.76974997,-5.15608 12.96459,-7.67292 0.96803,-0.58081 3.73762,-1.66027 3.70416,-2.91042 m 48.6833299,0 0.26459,0.26459 -0.26459,-0.26459 m -0.26458,0.52917 v 0.26458 l 0.79375,0.26459 v -0.26459 -0.26458 h -0.79375 m -18.78541,0.26458 0.26458,0.26459 -0.26458,-0.26459 m 22.48958,0 0.26458,0.26459 -0.26458,-0.26459 m 5.02708,0 -0.26458,1.05834 h 0.26458 v -1.05834 m -26.72291,0.26459 0.26458,0.26458 -0.26458,-0.26458 m 22.48958,0 0.26458,0.26458 -0.26458,-0.26458 m 3.43958,0.26458 -0.52917,1.5875 1.05834,-0.52917 -0.52917,-1.05833 m -25.66458,0.26458 v 0.79375 h 0.26458 l -0.26458,-0.79375 m 31.75,0.52917 0.79375,-0.26458 -0.79375,0.26458 m -38.62917,-0.26458 v 0.26458 l 1.05834,0.26458 v -0.26458 l -1.05834,-0.26458 m 12.25903,0.17638 0.0882,0.17641 -0.0882,-0.17641 m 11.0243,0.88195 v 0.26458 c 4.17496,-0.53039 5.67259,0.31762 9.26042,2.38125 -1.71616,-3.35875 -6.11143,-3.42162 -9.26042,-2.64583 m -16.05138,-0.0882 0.0882,0.17641 -0.0882,-0.17641 m 5.02708,0 0.0882,0.17641 -0.0882,-0.17641 m 0.70556,-0.17638 v 1.5875 h 0.26458 l -0.26458,-1.5875 m 26.19374,1.05834 -3.43958,2.64583 0.52917,-3.43958 2.91041,0.79375 m -63.2354099,0.52916 1.5875,-0.79375 -1.5875,0.79375 m 47.0958299,5.29167 h 0.26458 c -0.22997,-1.2387 -0.68548,-3.28662 0.007,-4.43851 1.95689,-3.25343 7.00947,-0.22098 8.19474,2.05726 0.47713,-1.82282 -2.09138,-2.79101 -3.43959,-3.33281 -4.2066,-1.69053 -6.4106,1.99226 -5.02708,5.71406 m 11.90625,-5.82083 0.26458,0.26458 -0.26458,-0.26458 m -59.5312499,0.52916 -0.52916,0.79375 0.52916,-0.79375 m 2.38125,0 0.26459,0.26459 -0.26459,-0.26459 m 56.8854199,0 -0.79375,2.64584 h 0.26458 l 0.52917,-2.64584 m -57.4145799,0.26459 -1.32292,1.32291 1.5875,-1.05833 -0.26458,-0.26458 m 35.7187499,0.26458 -0.52917,1.85208 h 0.26458 l 0.26459,-1.85208 m 8.73124,0.26458 0.26459,4.7625 h 0.26458 l -0.52917,-4.7625 m 11.46528,0.17638 0.0882,0.17641 -0.0882,-0.17641 m -21.51944,0.35279 c 0.004,0.84512 -0.10658,1.39457 0.79375,1.5875 v -0.26458 l -0.79375,-1.32292 m -37.7472199,0.44096 0.0882,0.17641 -0.0882,-0.17641 m 11.8180499,0.61737 2.64584,2.38125 v -0.26458 l -2.64584,-2.11667 m -6.61458,0.52917 0.26458,0.26458 -0.26458,-0.26458 m -4.7624999,0.79375 0.26458,0.26458 -0.26458,-0.26458 m 0.79375,0 0.26458,0.26458 -0.26458,-0.26458 m 3.43958,0 0.2645899,0.26458 -0.2645899,-0.26458 m 0.5291699,0.26458 0.26458,0.26459 -0.26458,-0.26459 m -4.7624999,0.26459 1.32292,1.05833 -1.32292,-1.05833 m 1.5875,0.26458 0.26458,0.26458 -0.26458,-0.26458 m 47.6249999,0.26458 v 0.26459 l 3.70416,0.26458 -3.70416,-0.52917 m -46.8312499,0.26459 0.26458,0.26458 -0.26458,-0.26458 m -4.23333,0.26458 c 1.8955,2.45599 5.22383,3.77288 7.9374999,5.09568 9.28262,4.52489 20.59824,5.61797 29.89791,-0.0686 v -0.26458 c -4.91406,1.41564 -9.53887,3.92187 -14.81666,4.07491 -1.59563,0.0463 -2.96805,-0.81172 -4.49792,-1.07752 -2.0564,-0.35729 -4.06446,-0.0562 -6.08542,-0.80416 -4.46053,-1.65089 -8.2175299,-4.86636 -12.4354099,-6.95573 m 55.0333299,0 v 0.26458 l 1.32291,0.26459 -1.32291,-0.52917 m -51.1527799,0.35279 0.17639,0.0882 -0.17639,-0.0882 m 33.4256999,0.17638 -1.5875,1.85208 1.5875,-1.85208 m -21.25487,0.61737 0.1764,0.0882 -0.1764,-0.0882 m 12.25903,-0.0882 0.26459,0.26458 -0.26459,-0.26458 m 9.525,0 0.26459,0.26458 -0.26459,-0.26458 m -20.90208,0.26458 0.26458,0.26458 -0.26458,-0.26458 m 0.79375,0 0.52917,0.52917 -0.52917,-0.52917 m -2.46945,0.35279 0.1764,0.0882 -0.1764,-0.0882 m 11.64167,0 0.17639,0.0882 -0.17639,-0.0882 m 1.6757,-0.0882 0.26458,0.26458 -0.26458,-0.26458 m 8.99583,0 -4.23333,2.64583 v 0.26459 c 1.46149,-0.25246 4.12138,-1.18687 4.23333,-2.91042 m -20.90208,0.26458 v 0.26459 h 1.05833 l -1.05833,-0.26459 m 11.37708,0 0.26458,0.26459 -0.26458,-0.26459 m 6.61458,0 0.26459,0.26459 -0.26459,-0.26459 m -9.525,0.26459 -0.26458,0.52916 0.26458,-0.52916 m 1.05834,0.26458 v 0.26458 l 1.5875,-0.26458 h -1.5875 m 7.9375,-0.26458 -0.52917,0.26458 v 0.26458 l 0.52917,-0.52916 m 1.05833,0.26458 -0.79375,0.52917 v 0.26458 l 1.05833,-0.52917 -0.26458,-0.26458 m -25.13542,0.26458 v 0.79375 h 0.26459 l 0.26458,-0.79375 h -0.52917 m 1.23472,0.35279 0.1764,0.0882 -0.1764,-0.0882 m -10.2305499,0.17638 c 1.33214,2.8308 4.67963,3.26446 7.1437499,4.38481 1.73177,0.78739 2.75751,2.05339 4.7625,2.22977 v -0.26458 l -4.23333,-2.19935 -2.8999999,-0.71454 -4.77292,-3.43611 m 10.8479199,0 v 0.26458 l 1.5875,0.26459 -1.5875,-0.52917 m 21.69583,0 0.26458,0.26458 -0.26458,-0.26458 m -1.85208,1.5875 h 0.26458 l 1.32292,-1.05833 -1.5875,1.05833 m -21.43125,-1.05833 v 0.26458 h 0.79375 l -0.79375,-0.26458 m 3.70416,0 0.26459,0.26458 -0.26459,-0.26458 m -2.46944,0.35278 0.17639,0.0882 -0.17639,-0.0882 m 0.61736,0.17638 v 0.26459 h 0.79375 l -0.79375,-0.26459 m 2.91042,0 0.26458,0.26459 -0.26458,-0.26459 m -1.85209,0.26459 0.26459,0.26458 -0.26459,-0.26458 m 0.79375,0 0.26459,0.26458 -0.26459,-0.26458 m 18.25625,0 v 0.26458 h 0.79375 l -0.79375,-0.26458 m 0.79375,5.55625 v 0.26458 l 5.82084,-3.175 c -2.43236,-0.58197 -4.01123,1.72118 -5.82084,2.91042 m -6.87916,0 v 0.26458 l 6.35,-0.79375 c -2.05301,-0.98662 -4.44316,-0.55475 -6.35,0.52917 m 6.79096,-0.44097 0.1764,0.0882 -0.1764,-0.0882 m -19.75555,0.17638 v 0.26459 c 1.50066,0.56199 2.72058,0.23498 4.23334,0.4126 3.22816,0.37901 5.1325,1.1757 8.46666,0.11656 l -4.49791,0.50139 z"
         id="path1" /><path
         style="fill:#000000;stroke:none"
         d="m 30.126815,-194.08644 6.1975,-6.61458 1.70407,-2.64583 -1.7347,-3.175 -4.46729,-7.14375 -16.52951,-26.72291 -4.90154,-7.9375 -2.2779399,-3.12274 -3.91976,0.42423 -9.78958,1.90476 c 1.65003,-3.52991 5.66068997,-7.19788 6.08541997,-11.1125 -2.47868997,0.4268 -4.84360997,1.81749 -7.14374997,2.79896 -4.6667701,1.99128 -9.3327501,3.99387 -14.0229201,5.92943 -8.05258,3.32317 -16.0084,6.87729 -24.07708,10.16196 -4.68846,1.90862 -10.19922,3.43866 -14.55106,6.00314 -3.45714,2.03723 -6.29283,7.88327 -8.69879,11.08984 -0.82267,1.09643 -2.48455,2.5673 -2.68524,3.96875 -0.15821,1.10489 0.93815,2.31829 1.50543,3.175 1.56297,2.36039 3.08372,4.75313 4.6,7.14375 6.18861,9.75722 12.45037,19.49044 18.85952,29.10416 3.56914,5.35371 7.01427,10.78598 10.58333,16.13958 1.57086,2.3563 4.28392,5.21254 5.06853,7.9375 0.48037,1.66833 0.13495,3.82942 0.13495,5.55625 0,3.36159 0.22377,6.71006 0.26356,10.05417 0.018,1.51575 -0.5641,4.40533 0.27295,5.71753 0.74808,1.17271 3.02045,1.81646 4.22599,2.41921 3.65872,1.82938 7.35826,3.73383 11.11249,5.35701 9.8387301,4.25384 19.5154201,9.29387 29.10417,14.08825 3.14689,1.57345 6.34891,3.0087 9.525,4.5173 1.33195,0.63266 2.73491,1.72507 4.23333,1.91333 1.73257,0.21767 3.95408,-2.3656 5.29167,-3.32097 4.81372,-3.43819 9.55507,-7.00052 14.2875,-10.54984 9.93507,-7.4513 20.05971,-14.66004 30.1625,-21.88245 2.91886,-2.08666 5.86059,-4.14286 8.73125,-6.29567 1.06673,-0.79998 2.781,-1.63861 3.43223,-2.83633 0.63422,-1.1664 0.28627,-3.18175 0.27092,-4.4732 -0.0387,-3.25631 -0.26357,-6.51597 -0.26357,-9.78959 0,-1.37369 0.37808,-3.43168 -0.1964,-4.70615 -0.58383,-1.29521 -2.83739,-1.87029 -4.03693,-2.40065 -3.61403,-1.59787 -7.1991,-3.27909 -10.84792,-4.79638 -14.89794,-6.19497 -30.16015,-10.97034 -45.50833,-15.87807 m -30.69166993,-65.08749 c -1.10516997,3.01862 -3.92394997,8.36183 -6.43614997,10.39838 -3.7033301,3.00216 -10.0932901,4.56616 -14.4659301,6.49801 -10.76224,4.75478 -21.46724,9.64411 -32.27916,14.28464 -4.68182,2.00945 -9.38596,4.724 -14.2875,6.12522 v 0.26458 l 13.75833,-5.85758 30.1625,-13.27326 17.4625001,-7.59207 15.08206,23.28333 9.2595999,14.2875 h 0.26459 l -6.79097,-10.58333 -10.67234993,-16.40417 -6.61376997,-10.58333 10.05417,-1.90783 3.86851,-0.56794 2.16689,3.00493 4.8662099,7.9375 16.19797,26.19375 4.46729,7.14375 1.76532,3.175 -1.82309,2.64583 -6.1091,6.61458 h -0.26458 l -0.52917,-0.52916 0.26458,0.79375 c -6.60668,4.45698 -13.69877,9.55776 -20.9020799,12.96458 v 0.26458 l 21.4312499,-12.96458 c 3.1e-4,2.90851 1.93466,9.73363 -1.5875,10.58333 l -0.79375,-1.85208 c -1.12852,1.12777 -2.25152,2.38743 -3.70417,3.10517 -1.02985,0.50884 -2.23614,0.45459 -3.1503,1.21125 -2.28238,1.88916 -3.98586,4.46694 -6.3747,6.35551 -7.4879999,5.91985 -15.7807799,9.94999 -24.34166,14.01904 -3.20131,1.52161 -6.19213,3.72952 -9.525,4.94236 l 0.26458,2.91042 -9.26041,-5.29167 24.0770801,-14.82994 12.96458,-7.92422 v -0.26459 c -9.35884,4.37456 -18.2439301,11.07358 -26.9875001,16.58444 -3.15109,1.98605 -6.36973,4.42962 -9.78958,5.90515 0.69524,-3.0385 4.83638,-6.95612 4.47342,-10.05417 -0.15925,-1.35927 -1.61688,-2.85893 -2.35675,-3.96875 -1.9905,-2.98575 -3.91916,-6.01074 -5.90903,-8.99583 -5.9186,-8.87876 -11.59939,-17.94311 -17.26202,-26.9875 -1.71995,-2.74712 -3.46587,-5.47741 -5.22083,-8.20208 -0.74879,-1.16254 -1.41908,-2.741 -2.58908,-3.54452 -2.60216,-1.78707 -8.8263,-0.68881 -11.88154,-0.68881 l 7.05555,-9.78959 2.99861,-4.18923 10.58334,-4.32154 25.92916,-10.892 14.2875001,-6.04133 8.20207997,-3.39548 m -68.52708007,37.83542 v 0.26458 l 1.05834,-0.26458 h -1.05834 m -0.52916,1.32291 c 2.48781,0.73537 5.61384,0.26459 8.20208,0.26459 1.08509,0 2.69365,-0.29298 3.60393,0.42423 2.96296,2.33451 5.01215,7.78441 7.07025,10.95285 5.81864,8.95776 11.36572,18.09375 17.28346,26.98749 2.04193,3.06881 3.96843,6.21246 6.04254,9.26042 0.75105,1.10368 2.30232,2.61415 2.48027,3.96875 0.13111,0.99806 -0.78926,2.07106 -1.22248,2.91042 -1.19033,2.30622 -2.11558,5.14398 -3.77255,7.14375 l -30.11167,-46.0375 -7.30687,-11.37708 -2.26896,-4.49792 m 87.57708,9.26042 c 2.1404,5.64709 6.94484,11.13835 10.31875,16.13958 h 0.26458 l -5.99437,-9.525 -4.58896,-6.61458 m 71.43749,39.42291 c -1.0686,1.4857 -3.65635,4.31918 -5.55625,4.59917 -1.50675,0.22206 -3.42014,-1.05021 -4.7625,-1.61342 -2.71185,-1.1378 -5.6758,-1.86973 -8.46666,-2.80916 -4.36949,-1.47081 -8.24335,-2.72182 -12.14613,-5.29595 -2.03715,-1.34363 -3.27247,-3.30203 -5.58096,-4.45627 -7.50803,-3.75401 -14.59669,-4.44176 -22.75416,-2.85979 l -0.52917,-9.525 c 5.91981,0.27053 12.62119,3.66478 18.25625,5.46521 10.33404,3.30176 20.49982,7.11918 30.42708,11.50507 3.67975,1.62573 7.63193,2.96631 11.1125,4.99014 m -33.07291,-6.61458 -3.70417,1.05833 v 0.26458 c 1.08012,-0.4026 3.00366,-1.30076 4.09738,-0.52182 1.62562,1.15777 0.88273,6.28232 -0.6578,7.13641 l 0.26459,-0.79375 c -1.20728,1.07768 -4.72212,3.98498 -6.08542,2.11666 h -0.26458 c 1.12365,2.33956 4.15278,-0.26591 5.82083,-0.79375 v 0.26459 c -1.58469,0.95746 -4.02851,3.06778 -6.0501,2.22139 -1.14078,-0.47762 -0.99003,-1.74618 -0.98912,-2.75056 0.003,-3.39595 1.2782,-4.61997 3.86422,-6.87917 -3.86429,2.2337 -4.97032,5.31823 -3.96875,9.525 -4.32976,-1.38202 -7.92437,-5.70745 -12.96458,-5.20183 -2.42038,0.2428 -4.24147,1.8406 -6.35,2.82058 l 0.26458,-3.43958 h -0.26458 l -0.26458,2.91042 -0.79375,-1.05834 h -0.26459 c 1.45091,3.74265 6.39175,3.38969 9.525,5.023 4.54898,2.37132 10.55352,8.08504 9.09914,13.76242 -0.79086,3.08721 -2.81523,5.12116 -5.13039,7.14375 l 3.70417,-3.43959 h 0.26458 l -0.79375,3.175 h 0.26459 l 1.85208,-6.35 h 0.26458 c -0.002,2.79305 -0.76697,4.87025 -2.38125,7.14375 h -0.26458 l 0.26458,-0.79375 c -0.95615,1.03899 -1.66123,2.38051 -2.69034,3.32709 -3.13363,2.88235 -7.52064,3.8302 -11.59716,4.34583 v -0.26458 l 6.35,-1.32292 v -0.26458 c -2.9881,0.12832 -5.57441,1.48088 -8.46666,1.63914 -8.19208,0.44829 -15.2222,-1.88721 -22.2249999,-5.87248 7.2331299,6.59768 22.8602299,8.71601 31.7499999,4.67982 7.36873,-3.34559 13.1505,-12.45537 7.72885,-20.02565 -2.42456,-3.38543 -6.25532,-6.58198 -10.1101,-8.12021 -1.81992,-0.72621 -3.81581,-0.75707 -5.55625,-1.66937 3.15078,-5.16325 11.09885,-2.318 15.08125,-0.0318 1.49252,0.85681 2.7229,2.31318 4.49791,2.58663 5.73617,0.8837 9.08278,-5.21938 8.20208,-9.96312 l 6.08542,3.40916 19.57917,6.64501 -2.91042,2.64583 c -1.40833,-5.85833 -7.57399,-5.56322 -12.17083,-4.39891 -1.59957,0.40515 -3.83334,0.85472 -4.83068,2.31 -0.77203,1.12652 -0.46099,2.90808 -0.46099,4.20558 -2.19,-0.006 -4.56237,-1.01229 -6.61356,0.22702 -2.66641,1.61101 -6.94815,9.4693 -3.85503,12.28699 1.30068,1.18486 4.5431,1.03028 6.23526,1.24432 -1.72354,2.20155 -5.02828,3.59892 -7.40834,5.02708 -5.04303,3.02608 -10.04533,6.1172 -15.08124,9.15487 -1.93868,1.16941 -5.3408,4.16383 -7.67292,4.0743 -2.8229,-0.10836 -6.6633,-2.37301 -9.26042,-3.47918 -5.88838,-2.50802 -11.8445099,-4.84638 -17.7270799,-7.36893 -5.69184,-2.44077 -10.98854,-5.83072 -16.4041701,-8.8119 -2.09293,-1.15212 -5.13943,-2.2486 -4.63347,-5.18305 0.1995,-1.15703 1.88857,-1.61277 2.78139,-2.10768 2.94585,-1.633 5.98317,-3.09365 8.9958301,-4.6 6.71569997,-3.35787 13.23218,-6.53887 19.3145899,-11.01656 2.19847,-1.61845 4.42356,-3.36941 6.32611,-5.3327 0.87824,-0.90627 1.48135,-2.22698 2.48067,-2.99166 0.79001,-0.60452 1.95114,-0.38612 2.83508,-0.85337 1.37996,-0.72943 2.31314,-2.03762 3.70397,-2.75913 l 0.52917,1.32291 c -7.23575,4.26801 -14.83304,13.88822 -7.62698,21.96042 3.66682,4.10756 8.99731,5.26946 13.44781,8.20208 v 0.52917 c -3.23262,2.20574 -8.0879,4.69393 -11.90216,1.94497 -1.47768,-1.06499 -1.74617,-3.21805 -3.44469,-4.00386 -1.23354,-0.57068 -2.65296,0.12231 -3.96773,-0.50058 -1.90492,-0.9025 -3.78162,-2.66696 -6.0854199,-2.37024 -1.21836,0.15692 -2.33205,1.21023 -3.17112,2.02992 -3.69316,3.60779 -2.8297,8.1775 1.31904,11.10187 l -2.64584,-3.70417 0.26459,-0.26458 1.32291,0.52917 v -0.26459 l -2.38125,-1.32291 v -1.85209 h 0.26459 v 1.05834 l 0.79375,-0.26459 c -1.72176,-2.61994 1.60561,-6.61855 4.49791,-6.73666 2.7225499,-0.11117 4.4428899,2.23106 6.8791699,2.81303 1.1731,0.28022 2.34789,-0.53123 3.38017,0.33808 2.39083,2.01336 2.60979,4.57714 6.40941,4.88376 3.37406,0.27229 5.49697,-1.10465 8.20188,-2.87243 1.46778,-0.95928 2.93292,-2.36171 1.99581,-4.24642 -1.25655,-2.52717 -4.47929,-3.20324 -6.7581,-4.44318 -1.55583,-0.84656 -2.84933,-2.00984 -4.49792,-2.70076 v 0.26458 c 1.52465,0.6664 2.77908,1.76413 4.23333,2.56335 2.61694,1.43822 6.51823,2.13753 6.87917,5.63874 h -0.26458 c -0.39327,-1.32389 -1.01649,-2.25931 -2.38125,-2.64584 v 0.26459 c 1.06628,0.37123 2.94691,2.02977 1.85208,3.175 v 1.32291 c -6.82666,-4.4961 -18.37381,-7.11742 -16.40417,-17.72708 h 0.26459 c 0.38513,2.07457 0.0833,4.41244 1.5875,6.08542 l -0.79375,-3.70417 h 0.26458 l 0.79375,1.85209 c -0.41558,-3.44169 -2.68801,-5.63918 -0.70066,-9.26042 5.44035,-9.91307 20.10559,-11.24899 29.54024,-7.29605 2.40584,1.008 6.34614,1.96073 7.67292,4.38563 m -21.69583,-5.29166 v 0.26458 h 1.05833 l -1.05833,-0.26458 m 0.52916,0.52916 0.26459,0.26459 -0.26459,-0.26459 m -9.525,2.64584 c 1.74267,-0.91692 3.51231,-2.24509 5.55625,-1.85209 -1.32073,-1.50365 -4.60753,0.70715 -5.55625,1.85209 m 8.90764,-2.29307 0.17639,0.0882 -0.17639,-0.0882 m 8.81945,-0.0882 v 0.26459 h 0.79375 l -0.79375,-0.26459 m -3.96875,0.26459 -0.26459,0.52916 0.26459,-0.52916 m 5.02708,0 v 0.26458 l 1.05833,0.26458 v -0.26458 l -1.05833,-0.26458 m -13.31736,0.88194 0.17639,0.0882 -0.17639,-0.0882 m 7.23194,-0.0882 0.26459,0.26458 -0.26459,-0.26458 m 4.7625,0 v 0.26458 h 0.79375 l -0.79375,-0.26458 m 2.11667,0 0.26458,0.26458 -0.26458,-0.26458 m -1.05833,0.26458 v 0.26458 h 0.79375 l -0.79375,-0.26458 m -5.29167,0.26458 v 0.26459 h 0.79375 l -0.79375,-0.26459 m -9.87778,0.35278 0.17639,0.0882 -0.17639,-0.0882 m 0.35278,0.44097 v 0.26459 l 1.5875,-0.52917 -1.5875,0.26458 m -4.23333,0 -0.79375,1.05834 0.79375,-1.05834 m 1.5875,0.26459 v 0.26458 h 0.79375 l -0.79375,-0.26458 m 1.05833,0.26458 v 0.26458 l 1.32292,-0.26458 h -1.32292 m -1.5875,0 0.26458,0.26458 -0.26458,-0.26458 m -0.52917,0.26458 0.26459,0.26459 -0.26459,-0.26459 m 26.9875,0 v 0.26459 l 1.32292,0.52916 -1.32292,-0.79375 m -27.51666,0.26459 0.26458,0.26458 -0.26458,-0.26458 m 25.92916,0.26458 v 0.26458 l 1.05833,-0.26458 h -1.05833 m 1.5875,0.26458 0.26458,0.26459 -0.26458,-0.26459 m -5.82083,0.52917 -0.26459,0.52917 h 0.52917 l -0.26458,-0.52917 m 0.79375,0.26458 -0.26459,0.52917 0.26459,-0.52917 m -17.99167,4.7625 h 0.26459 c 2.41015,-3.08921 5.88608,-3.43958 9.525,-3.43958 -3.05533,-1.28209 -8.37432,0.43013 -9.78959,3.43958 m 19.05,-3.70416 0.26458,0.26458 -0.26458,-0.26458 m 1.5875,7.9375 h 0.26458 c 0.0595,-0.99321 -0.60402,-1.95699 -0.42341,-2.91042 0.53352,-2.81643 4.44647,-5.08698 6.77341,-3.70417 -1.67662,-3.32424 -6.26397,1.07657 -7.07923,3.175 -0.46019,1.18449 0.2586,2.27939 0.46465,3.43959 m -10.58333,-7.67292 v 0.26458 l 2.38125,0.52917 -2.38125,-0.79375 m 9.78958,0 -1.32292,1.5875 1.32292,-1.5875 m -1.32292,0.52917 0.26459,0.26458 -0.26459,-0.26458 m -25.92916,0.26458 v 1.32292 h 0.26458 l -0.26458,-1.32292 m 20.10833,0 v 0.26458 l 5.55625,3.175 c -1.31916,-1.59614 -3.54189,-2.95668 -5.55625,-3.43958 m 14.02292,0.52917 v 4.23333 h 0.26458 l 0.26458,-4.23333 h -0.52916 m -35.36597,0.97014 0.0882,0.17638 -0.0882,-0.17638 m 0.97014,0.35277 v 2.64584 h 0.26458 l -0.26458,-2.64584 m -1.32292,0.26459 v 0.79375 h 0.26458 l -0.26458,-0.79375 m 7.14375,0.52916 v 1.85209 h 0.26458 l -0.26458,-1.85209 m -7.40833,0.52917 v 1.85208 h 0.26458 l -0.26458,-1.85208 m 69.58541,1.85208 0.26458,12.96459 -0.27193,5.26778 -5.01973,4.02979 -11.64167,8.33152 -24.34167,17.68625 -19.57916,14.42632 -0.52917,-20.37292 h -0.26458 l 0.26458,20.37292 c -13.78876,-5.34962 -27.2320599,-12.80235 -40.48125,-19.38011 -5.48976,-2.72548 -11.3031,-6.43837 -17.19791,-8.13656 l -0.52917,-21.43124 c 5.87791,1.8607 11.83164,6.60163 17.19792,9.67812 8.5738401,4.91538 17.3628801,8.84542 26.45833,12.65916 3.15467,1.32275 6.34165,2.5521 9.525,3.80277 1.41777,0.55701 3.22265,1.57098 4.7625,1.60465 1.60726,0.0351 3.41915,-1.50621 4.7625,-2.27039 3.84641,-2.18811 7.58825,-4.56251 11.37708,-6.84793 10.57615,-6.37954 20.85549,-13.03403 30.69167,-20.51296 4.87638,-3.70777 9.253,-8.82328 14.55208,-11.87176 m -69.32083,0.52917 0.26458,1.32292 h 0.26459 l -0.52917,-1.32292 m 58.20833,5.82083 1.05833,-0.26458 c 0.27526,2.49478 -3.61434,4.71441 -5.55625,5.82083 l 0.79375,-2.91041 v -0.26459 c -1.1771,0.24237 -1.73725,-0.0277 -2.64583,-0.79375 0.9877,1.36483 3.02943,4.87732 -0.26458,5.02709 -0.25864,1.20696 -1.42204,0.62993 -2.38125,0.52916 v 0.26459 l 1.5875,0.52916 -3.96875,-1.05833 2.38125,0.26458 v -0.26458 c -3.05616,-0.45816 -6.14483,-4.15911 -5.02709,-7.14375 l -0.79375,2.91042 h -0.52916 c -0.0172,-0.83437 -0.49364,-2.30896 0.0112,-3.02576 1.80434,-2.56169 7.42877,0.68034 8.98459,1.96742 -2.16502,-2.80346 -5.73541,-3.25151 -8.99583,-2.64583 2.12346,-2.85777 8.32018,-3.71098 11.64166,-3.08906 1.85645,0.34761 5.01724,1.98758 3.70417,4.14739 m -57.0618,-4.05694 0.0882,0.17638 -0.0882,-0.17638 m 3.88055,1.14653 1.32292,1.05833 v -0.26458 l -1.32292,-0.79375 m 43.30348,0.0882 0.17638,0.0882 -0.17638,-0.0882 m 1.14652,0.97014 2.11667,-0.52917 c -0.90878,-0.47455 -1.45717,-0.19913 -2.11667,0.52917 m -2.55764,-0.61735 0.0882,0.17637 -0.0882,-0.17637 m 0.70556,-0.1764 0.26458,0.26458 -0.26458,-0.26458 m -14.55209,0.26458 c 1.36782,1.82137 6.04284,2.70909 8.20209,3.43959 v -0.26459 l -8.20209,-3.175 m 21.43125,0 v 0.26459 l 0.52917,0.26458 -1.05833,0.52917 v 0.26458 l 1.5875,-0.52917 -1.05834,-0.79375 m -0.52916,0.26459 0.26458,0.26458 -0.26458,-0.26458 m -0.52917,0.26458 0.26458,0.26458 -0.26458,-0.26458 m -53.975,0.26458 c 0.71189,1.49492 2.13768,2.44619 3.70417,2.91042 v -0.26458 l -3.70417,-2.64584 m 53.44583,0 -0.26458,0.79375 h 0.26458 v -0.79375 m 0.44098,0.61736 0.17638,0.0882 -0.17638,-0.0882 m -9.17223,0.44098 v 0.26458 c 3.65522,0.62856 8.38189,1.92647 8.20209,6.61458 2.2813,-4.2986 -5.13469,-6.98545 -8.20209,-6.87916 m -56.0916599,5.02708 7.9374999,-4.7625 c -1.86964,-0.30557 -6.9755999,3.17721 -7.9374999,4.7625 m 28.0458299,-5.02708 v 0.26458 c 1.9785,0.38279 3.84307,1.93672 4.7625,3.70417 0.26886,-2.01881 -3.05952,-3.78378 -4.7625,-3.96875 m 41.80417,0.52916 -3.43959,2.11667 v 0.26458 c 1.12264,-0.35773 3.1007,-1.18213 3.43959,-2.38125 m -59.26667,0.52917 v 0.26458 l 11.64167,5.82084 v -0.26459 l -11.1125,-6.08541 -0.52917,0.26458 m 17.72709,-0.26458 0.52916,0.52916 -0.52916,-0.52916 m 0.79375,0.52916 2.91041,2.64584 -2.91041,-2.64584 m 35.71874,0 -0.26458,0.52917 0.26458,-0.52917 m -44.97916,0.79375 0.26458,0.26459 -0.26458,-0.26459 m 1.23472,0.0882 0.17639,0.0882 -0.17639,-0.0882 m -0.70555,0.1764 0.52916,0.52916 -0.52916,-0.52916 m -8.20209,0.26458 v 0.26458 l 3.18542,3.47164 10.04375,4.73045 c -1.70176,-2.88599 -6.82986,-3.29144 -9.52398,-4.98565 -1.48291,-0.93253 -2.15207,-2.6386 -3.70519,-3.48102 m 10.05417,0 0.26458,0.26458 -0.26458,-0.26458 m -1.05833,0.26458 0.26458,0.26459 -0.26458,-0.26459 m 0.52916,0.26459 0.26459,0.26458 -0.26459,-0.26458 m 34.13125,7.14375 2.11667,-3.43959 h 0.26458 c 0.60846,2.45334 0.15385,5.68386 -2.64583,6.35 v -2.38125 l -1.32292,3.43959 0.26458,-1.5875 h -0.26458 c -0.302,1.52846 -0.64928,2.51036 -2.38125,2.38125 v 0.26458 h 0.52917 v 0.26458 l -7.67292,-0.52916 v 0.26458 l 6.61458,0.79375 v 0.26458 l -7.67291,-0.79375 c -0.0241,-2.9155 -0.79059,-5.10078 2.11666,-6.87916 v -0.26459 l -2.11666,1.32292 c 0.82731,-2.09955 2.27575,-5.43633 4.49893,-6.34754 1.95641,-0.80188 8.87599,-0.37587 9.54317,2.11912 0.39408,1.47374 -1.22,3.51981 -1.87127,4.75759 m -33.07291,-6.61459 0.26458,0.26459 -0.26458,-0.26459 m 25.13541,1.05834 0.26458,0.26458 -0.26458,-0.26458 m 5.29167,0 -1.05834,1.05833 1.05834,-1.05833 m -4.49792,0.26458 0.26458,0.26458 -0.26458,-0.26458 m -50.0062499,0.26458 -11.64166,7.03168 -5.02709,3.55166 c 4.47993,-1.93044 8.76974997,-5.15608 12.96459,-7.67292 0.96803,-0.58081 3.73762,-1.66027 3.70416,-2.91042 m 48.6833299,0 0.26459,0.26459 -0.26459,-0.26459 m -0.26458,0.52917 v 0.26458 l 0.79375,0.26459 v -0.26459 -0.26458 h -0.79375 m -18.78541,0.26458 0.26458,0.26459 -0.26458,-0.26459 m 22.48958,0 0.26458,0.26459 -0.26458,-0.26459 m 5.02708,0 -0.26458,1.05834 h 0.26458 v -1.05834 m -26.72291,0.26459 0.26458,0.26458 -0.26458,-0.26458 m 22.48958,0 0.26458,0.26458 -0.26458,-0.26458 m 3.43958,0.26458 -0.52917,1.5875 1.05834,-0.52917 -0.52917,-1.05833 m -25.66458,0.26458 v 0.79375 h 0.26458 l -0.26458,-0.79375 m 31.75,0.52917 0.79375,-0.26458 -0.79375,0.26458 m -38.62917,-0.26458 v 0.26458 l 1.05834,0.26458 v -0.26458 l -1.05834,-0.26458 m 12.25903,0.17638 0.0882,0.17641 -0.0882,-0.17641 m 11.0243,0.88195 v 0.26458 c 4.17496,-0.53039 5.67259,0.31762 9.26042,2.38125 -1.71616,-3.35875 -6.11143,-3.42162 -9.26042,-2.64583 m -16.05138,-0.0882 0.0882,0.17641 -0.0882,-0.17641 m 5.02708,0 0.0882,0.17641 -0.0882,-0.17641 m 0.70556,-0.17638 v 1.5875 h 0.26458 l -0.26458,-1.5875 m 26.19374,1.05834 -3.43958,2.64583 0.52917,-3.43958 2.91041,0.79375 m -63.2354099,0.52916 1.5875,-0.79375 -1.5875,0.79375 m 47.0958299,5.29167 h 0.26458 c -0.22997,-1.2387 -0.68548,-3.28662 0.007,-4.43851 1.95689,-3.25343 7.00947,-0.22098 8.19474,2.05726 0.47713,-1.82282 -2.09138,-2.79101 -3.43959,-3.33281 -4.2066,-1.69053 -6.4106,1.99226 -5.02708,5.71406 m 11.90625,-5.82083 0.26458,0.26458 -0.26458,-0.26458 m -59.5312499,0.52916 -0.52916,0.79375 0.52916,-0.79375 m 2.38125,0 0.26459,0.26459 -0.26459,-0.26459 m 56.8854199,0 -0.79375,2.64584 h 0.26458 l 0.52917,-2.64584 m -57.4145799,0.26459 -1.32292,1.32291 1.5875,-1.05833 -0.26458,-0.26458 m 35.7187499,0.26458 -0.52917,1.85208 h 0.26458 l 0.26459,-1.85208 m 8.73124,0.26458 0.26459,4.7625 h 0.26458 l -0.52917,-4.7625 m 11.46528,0.17638 0.0882,0.17641 -0.0882,-0.17641 m -21.51944,0.35279 c 0.004,0.84512 -0.10658,1.39457 0.79375,1.5875 v -0.26458 l -0.79375,-1.32292 m -37.7472199,0.44096 0.0882,0.17641 -0.0882,-0.17641 m 11.8180499,0.61737 2.64584,2.38125 v -0.26458 l -2.64584,-2.11667 m -6.61458,0.52917 0.26458,0.26458 -0.26458,-0.26458 m -4.7624999,0.79375 0.26458,0.26458 -0.26458,-0.26458 m 0.79375,0 0.26458,0.26458 -0.26458,-0.26458 m 3.43958,0 0.2645899,0.26458 -0.2645899,-0.26458 m 0.5291699,0.26458 0.26458,0.26459 -0.26458,-0.26459 m -4.7624999,0.26459 1.32292,1.05833 -1.32292,-1.05833 m 1.5875,0.26458 0.26458,0.26458 -0.26458,-0.26458 m 47.6249999,0.26458 v 0.26459 l 3.70416,0.26458 -3.70416,-0.52917 m -46.8312499,0.26459 0.26458,0.26458 -0.26458,-0.26458 m -4.23333,0.26458 c 1.8955,2.45599 5.22383,3.77288 7.9374999,5.09568 9.28262,4.52489 20.59824,5.61797 29.89791,-0.0686 v -0.26458 c -4.91406,1.41564 -9.53887,3.92187 -14.81666,4.07491 -1.59563,0.0463 -2.96805,-0.81172 -4.49792,-1.07752 -2.0564,-0.35729 -4.06446,-0.0562 -6.08542,-0.80416 -4.46053,-1.65089 -8.2175299,-4.86636 -12.4354099,-6.95573 m 55.0333299,0 v 0.26458 l 1.32291,0.26459 -1.32291,-0.52917 m -51.1527799,0.35279 0.17639,0.0882 -0.17639,-0.0882 m 33.4256999,0.17638 -1.5875,1.85208 1.5875,-1.85208 m -21.25487,0.61737 0.1764,0.0882 -0.1764,-0.0882 m 12.25903,-0.0882 0.26459,0.26458 -0.26459,-0.26458 m 9.525,0 0.26459,0.26458 -0.26459,-0.26458 m -20.90208,0.26458 0.26458,0.26458 -0.26458,-0.26458 m 0.79375,0 0.52917,0.52917 -0.52917,-0.52917 m -2.46945,0.35279 0.1764,0.0882 -0.1764,-0.0882 m 11.64167,0 0.17639,0.0882 -0.17639,-0.0882 m 1.6757,-0.0882 0.26458,0.26458 -0.26458,-0.26458 m 8.99583,0 -4.23333,2.64583 v 0.26459 c 1.46149,-0.25246 4.12138,-1.18687 4.23333,-2.91042 m -20.90208,0.26458 v 0.26459 h 1.05833 l -1.05833,-0.26459 m 11.37708,0 0.26458,0.26459 -0.26458,-0.26459 m 6.61458,0 0.26459,0.26459 -0.26459,-0.26459 m -9.525,0.26459 -0.26458,0.52916 0.26458,-0.52916 m 1.05834,0.26458 v 0.26458 l 1.5875,-0.26458 h -1.5875 m 7.9375,-0.26458 -0.52917,0.26458 v 0.26458 l 0.52917,-0.52916 m 1.05833,0.26458 -0.79375,0.52917 v 0.26458 l 1.05833,-0.52917 -0.26458,-0.26458 m -25.13542,0.26458 v 0.79375 h 0.26459 l 0.26458,-0.79375 h -0.52917 m 1.23472,0.35279 0.1764,0.0882 -0.1764,-0.0882 m -10.2305499,0.17638 c 1.33214,2.8308 4.67963,3.26446 7.1437499,4.38481 1.73177,0.78739 2.75751,2.05339 4.7625,2.22977 v -0.26458 l -4.23333,-2.19935 -2.8999999,-0.71454 -4.77292,-3.43611 m 10.8479199,0 v 0.26458 l 1.5875,0.26459 -1.5875,-0.52917 m 21.69583,0 0.26458,0.26458 -0.26458,-0.26458 m -1.85208,1.5875 h 0.26458 l 1.32292,-1.05833 -1.5875,1.05833 m -21.43125,-1.05833 v 0.26458 h 0.79375 l -0.79375,-0.26458 m 3.70416,0 0.26459,0.26458 -0.26459,-0.26458 m -2.46944,0.35278 0.17639,0.0882 -0.17639,-0.0882 m 0.61736,0.17638 v 0.26459 h 0.79375 l -0.79375,-0.26459 m 2.91042,0 0.26458,0.26459 -0.26458,-0.26459 m -1.85209,0.26459 0.26459,0.26458 -0.26459,-0.26458 m 0.79375,0 0.26459,0.26458 -0.26459,-0.26458 m 18.25625,0 v 0.26458 h 0.79375 l -0.79375,-0.26458 m 0.79375,5.55625 v 0.26458 l 5.82084,-3.175 c -2.43236,-0.58197 -4.01123,1.72118 -5.82084,2.91042 m -6.87916,0 v 0.26458 l 6.35,-0.79375 c -2.05301,-0.98662 -4.44316,-0.55475 -6.35,0.52917 m 6.79096,-0.44097 0.1764,0.0882 -0.1764,-0.0882 m -19.75555,0.17638 v 0.26459 c 1.50066,0.56199 2.72058,0.23498 4.23334,0.4126 3.22816,0.37901 5.1325,1.1757 8.46666,0.11656 l -4.49791,0.50139 z"
         id="path1-8" /></g><image
       width="270.93332"
       height="270.93332"
       preserveAspectRatio="none"
       style="image-rendering:optimizeQuality"
       xlink:href="Gemini_Generated_Image_7kt3il7kt3il7kt3.png"
       id="image1-76"
       x="-329.43332"
       y="44.200008" /><image
       width="270.93332"
       height="270.93332"
       preserveAspectRatio="none"
       style="image-rendering:optimizeQuality"
       xlink:href="Gemini_Generated_Image_a3jiaba3jiaba3ji.png"
       id="image1-2"
       x="-217.23332"
       y="-154.53333" /><image
       width="270.93332"
       height="270.93332"
       preserveAspectRatio="none"
       style="image-rendering:optimizeQuality"
       xlink:href="Gemini_Generated_Image_861owy861owy861o.png"
       id="image1-768"
       x="-120.43332"
       y="45.666676" /></g></svg>
