<?xml version="1.0" encoding="UTF-8" standalone="no"?>
<!-- Created with Inkscape (http://www.inkscape.org/) -->

<svg
   width="87.587143mm"
   height="186.73227mm"
   viewBox="0 0 87.587143 186.73227"
   version="1.1"
   id="svg1"
   xml:space="preserve"
   inkscape:version="1.3.2 (091e20e, 2023-11-25, custom)"
   sodipodi:docname="telefoon-piet.svg"
   xmlns:inkscape="http://www.inkscape.org/namespaces/inkscape"
   xmlns:sodipodi="http://sodipodi.sourceforge.net/DTD/sodipodi-0.dtd"
   xmlns:xlink="http://www.w3.org/1999/xlink"
   xmlns="http://www.w3.org/2000/svg"
   xmlns:svg="http://www.w3.org/2000/svg"><sodipodi:namedview
     id="namedview1"
     pagecolor="#ffffff"
     bordercolor="#ffffff"
     borderopacity="1"
     inkscape:showpageshadow="0"
     inkscape:pageopacity="0"
     inkscape:pagecheckerboard="1"
     inkscape:deskcolor="#d1d1d1"
     inkscape:document-units="mm"
     inkscape:zoom="0.72159091"
     inkscape:cx="-44.346457"
     inkscape:cy="425.44882"
     inkscape:window-width="1920"
     inkscape:window-height="1002"
     inkscape:window-x="-8"
     inkscape:window-y="-8"
     inkscape:window-maximized="1"
     inkscape:current-layer="layer1" /><defs
     id="defs1"><inkscape:path-effect
       effect="spiro"
       id="path-effect3"
       is_visible="true"
       lpeversion="1" /><clipPath
       clipPathUnits="userSpaceOnUse"
       id="clipPath1"><path
         style="fill:none;stroke:#000000;stroke-width:0.264583px;stroke-linecap:butt;stroke-linejoin:miter;stroke-opacity:1"
         d="m 173.43333,187.73333 c 13.77599,4.92119 26.94275,-40.28019 8.06666,-47.3 C 184.56523,129.54626 169.4,124.66666 169.4,124.66666 L 195.06666,107.06667 184.8,91.300001 l -38.86667,8.433332 -89.099997,30.433327 11,55.36667 L 145.93333,211.2 Z"
         id="path2"
         sodipodi:nodetypes="cccccccccc" /></clipPath><clipPath
       clipPathUnits="userSpaceOnUse"
       id="clipPath40"><path
         style="fill:#000000;stroke-width:1"
         d="m 179.73245,103.89271 c -0.0241,-0.0172 -9.50938,-0.11147 -21.07828,-0.20952 -11.56891,-0.0981 -23.29657,-0.22843 -26.06146,-0.28972 -2.7649,-0.0613 -11.51599,-0.17971 -19.44688,-0.26315 -7.93088,-0.0834 -15.9676,-0.20272 -17.85937,-0.26506 -1.891771,-0.0623 -10.285675,-0.18402 -18.653123,-0.2704 -13.722141,-0.14165 -17.264007,-0.24968 -17.751835,-0.54142 -0.457226,-0.27345 -5.370489,-1.18906 -5.700673,-1.06236 -0.246226,0.0945 -0.319159,0.0382 -0.200067,-0.15454 0.128609,-0.2081 1.96e-4,-0.25427 -0.409305,-0.14719 -0.328192,0.0858 -0.522626,0.082 -0.432078,-0.009 0.09055,-0.0906 -1.713375,-0.61753 -4.008723,-1.171069 -2.295348,-0.553543 -4.976112,-1.258387 -5.95725,-1.566323 -0.981141,-0.307938 -1.989542,-0.48097 -2.240894,-0.384516 -0.251351,0.09645 -0.372369,0.09073 -0.268925,-0.0127 0.103441,-0.103442 0.07503,-0.324292 -0.06314,-0.490773 -0.434986,-0.524124 -0.01082,-1.40371 0.742751,-1.540227 3.443195,-0.623766 6.124168,-1.732447 6.13169,-2.535674 0.0035,-0.373732 0.038,-0.378894 0.253566,-0.03793 0.195469,0.309179 0.309687,0.323985 0.52732,0.06835 0.152792,-0.179472 0.198472,-0.268806 0.101507,-0.198522 -0.09696,0.07028 -0.306316,0.03153 -0.465227,-0.08613 -0.158909,-0.117655 -1.0033,-0.443534 -1.876425,-0.72418 -0.873125,-0.280644 -1.647034,-0.579443 -1.719792,-0.663996 -0.07276,-0.08455 -1.02526,-0.367657 -2.116666,-0.629116 -2.937333,-0.70367 -3.2252,-0.844965 -3.127201,-1.534935 0.10913,-0.76836 1.71545,-1.564658 3.502597,-1.736336 0.739417,-0.07103 1.466445,-0.296018 1.615617,-0.499972 0.261371,-0.357352 2.175343,-0.880314 9.988555,-2.729209 2.004859,-0.474425 3.584036,-0.923751 3.509283,-0.998503 -0.579469,-0.579467 1.689491,-1.393569 3.692109,-1.324724 1.164897,0.04005 9.916589,-0.08136 19.448204,-0.269783 23.876775,-0.472006 80.663405,-1.037502 94.179595,-0.937865 4.22084,0.03111 4.81474,-0.01373 4.3812,-0.33073 -0.27584,-0.201697 -0.64503,-0.366723 -0.82042,-0.366723 -0.40641,0 -1.96121,-1.757704 -1.96121,-2.217158 0,-0.85671 0.96794,-1.284274 3.70416,-1.636212 0.65485,-0.08423 2.73844,-0.375857 4.63021,-0.648065 3.78579,-0.544738 7.08511,-0.885016 12.7,-1.309823 2.03729,-0.154135 5.25198,-0.401145 7.14375,-0.54891 13.21289,-1.032057 34.23303,-0.31632 37.00041,1.259864 1.08975,0.620681 2.27339,2.979298 2.47489,4.931709 l 0.15394,1.491512 1.48434,0.0046 c 1.23367,0.0038 2.92566,0.268382 5.31045,0.83036 0.2126,0.0501 0.51025,0.184579 0.66146,0.29885 0.15121,0.114271 0.83004,0.551516 1.50851,0.971658 0.77933,0.482592 1.50645,1.23425 1.97457,2.041192 0.40754,0.702516 0.80492,1.307039 0.88308,1.343382 0.19757,0.09187 -0.098,4.628266 -0.32544,4.994788 -0.1026,0.165333 0.21871,0.72658 0.72059,1.258732 2.22139,2.355357 1.17778,5.972701 -2.21984,7.694417 -2.72026,1.37846 -5.94261,1.77568 -18.27384,2.25272 -3.8563,0.14918 -8.32114,0.32909 -9.92187,0.39979 -4.11531,0.18177 -45.27553,0.63457 -45.46442,0.50015 z m 60.00481,-23.43223 c -0.43956,-1.410216 -0.65172,-1.786655 -1.16037,-2.058879 -2.48571,-1.330312 -23.53197,-1.203283 -44.19624,0.266755 -3.99757,0.284382 -7.28786,0.517059 -7.31176,0.517059 -0.0239,0 -0.21888,0.267891 -0.43329,0.595313 l -0.38983,0.595312 19.60784,0.04924 c 10.78431,0.02708 21.69144,0.147098 24.23805,0.266705 2.54662,0.119608 5.8017,0.254511 7.23353,0.299784 l 2.60333,0.08232 z"
         id="path41" /></clipPath><clipPath
       clipPathUnits="userSpaceOnUse"
       id="clipPath42"><path
         style="fill:#000000;stroke-width:1"
         d="m 156.74062,222.92202 c -2.69477,-0.42372 -5.09754,-1.78878 -4.42457,-2.51367 0.0983,-0.10589 -0.10437,-0.045 -0.4504,0.1353 -0.72095,0.37568 -3.44098,0.79529 -3.93492,0.60703 -0.62212,-0.23711 -0.33128,-0.75668 0.61512,-1.0989 1.72855,-0.62506 0.78544,-0.54495 -1.35322,0.11494 -2.40066,0.74074 -3.80502,0.86544 -3.33236,0.29592 0.1616,-0.19472 1.01038,-0.57099 1.88618,-0.83616 0.87579,-0.26517 1.54588,-0.52859 1.48909,-0.58539 -0.10423,-0.10423 -2.08232,0.37619 -6.30075,1.53027 -2.03581,0.55695 -3.02433,0.58624 -2.51253,0.0744 0.30251,-0.30251 9.75655,-2.94458 12.32864,-3.44542 l 2.48944,-0.48475 0.50736,-1.14225 c 0.96533,-2.17328 1.24598,-4.29334 0.68922,-5.20631 -0.6798,-1.11471 -0.6201,-2.29401 0.15866,-3.13431 l 0.64559,-0.69659 -0.65431,-2.71548 c -0.35987,-1.49351 -1.31666,-4.91813 -2.12619,-7.61027 -0.80953,-2.69213 -2.10131,-7.21651 -2.87063,-10.05416 -2.06871,-7.63056 -3.15217,-11.23258 -3.41218,-11.34401 -0.64186,-0.27509 -1.23428,-1.19674 -1.38829,-2.15982 -0.15218,-0.95171 -0.31482,-1.14821 -1.40957,-1.70296 -1.14771,-0.58159 -2.8976,-2.22074 -3.28609,-3.07814 -0.13437,-0.29657 -0.19784,-0.30089 -0.32627,-0.0222 -0.0877,0.19032 -0.56394,0.87596 -1.05833,1.52365 -0.66898,0.87641 -0.89889,1.44288 -0.89889,2.21476 0,0.60477 -0.17932,1.21646 -0.43014,1.46728 -0.70848,0.70847 -0.61515,6.07721 0.14726,8.4712 1.14462,3.59416 1.05827,6.89448 -0.37366,14.28108 -1.63527,8.43553 -1.79015,10.51858 -0.83778,11.26772 0.71424,0.56182 0.95169,1.73961 0.45275,2.24568 -0.15438,0.15658 -0.0437,0.8499 0.29341,1.83885 0.42941,1.25949 0.50755,1.95665 0.37821,3.37407 -0.0897,0.98262 -0.0729,1.77219 0.0373,1.75461 0.70365,-0.11228 0.91793,0.0411 0.59722,0.42757 -0.41504,0.50009 -0.66292,0.53242 3.04271,-0.39687 3.45204,-0.86571 3.83646,-0.91975 3.83646,-0.53937 0,0.13991 -0.44649,0.36966 -0.99219,0.51054 -4.28115,1.10528 -6.41148,1.70919 -6.32704,1.79362 0.0546,0.0546 2.04233,-0.37971 4.41724,-0.96508 4.51425,-1.11266 5.28324,-1.23055 5.28324,-0.80991 0,0.25615 -0.4453,0.39694 -3.83646,1.21298 -1.01865,0.24512 -4.03245,1.02727 -6.69735,1.73811 -5.01025,1.33645 -6.03906,1.51488 -5.71543,0.99123 0.13331,-0.2157 -0.0876,-0.24985 -0.77814,-0.1203 -1.948,0.36545 -0.88258,-0.28743 2.01227,-1.2331 3.82942,-1.25097 2.04177,-1.13133 -3.22553,0.21587 -5.17955,1.32475 -6.30896,1.20906 -1.81134,-0.18554 2.73161,-0.84701 1.55931,-0.81776 -1.90034,0.0474 -1.12505,0.28135 -2.04033,0.39056 -2.12501,0.25356 -0.0889,-0.14388 -0.88246,-0.13675 -1.9734,0.0178 -1.18898,0.16838 -1.8804,0.16823 -1.98464,-5.3e-4 -0.19337,-0.31289 -3.71986,-0.41605 -5.10369,-0.1493 -0.83656,0.16125 -0.99219,0.11976 -0.99219,-0.26451 0,-0.38124 -0.16226,-0.42729 -0.99219,-0.28162 -0.5457,0.0958 -1.37914,0.24134 -1.85208,0.32347 -0.65188,0.11321 -0.8599,0.0541 -0.8599,-0.24449 0,-0.3119 -0.25491,-0.36509 -1.22545,-0.25569 -2.27385,0.25629 -1.21802,-0.54778 1.50277,-1.14444 1.5771,-0.34586 2.35437,-0.6237 2.131,-0.76175 -0.59785,-0.3695 -1.41088,-2.5162 -1.22837,-3.24337 l 0.16717,-0.66608 2.86109,0.18691 c 3.40421,0.22238 5.83282,-0.15557 6.03786,-0.93964 0.079,-0.30194 1.15436,-1.02047 2.76725,-1.84896 l 2.6381,-1.3551 -0.1796,-1.91652 c -0.25638,-2.73601 0.19866,-3.1139 2.85058,-2.36722 0.53732,0.15129 0.55846,-0.0467 0.48424,-4.5355 -0.10321,-6.24247 -1.16195,-15.16978 -2.36907,-19.97604 -0.4203,-1.67349 -0.8462,-3.64703 -0.94645,-4.38565 -0.14974,-1.10339 -0.31877,-1.42357 -0.94759,-1.79503 -0.71979,-0.42519 -1.30894,-1.702 -1.31289,-2.84532 -7.9e-4,-0.23487 -0.47979,-0.75851 -1.06441,-1.16365 -4.01487,-2.78231 -4.91366,-5.46715 -4.83649,-14.44734 l 0.0537,-6.24845 -1.39785,-0.96274 c -0.76882,-0.5295 -1.6771,-1.25998 -2.0184,-1.62327 l -0.62054,-0.66054 0.57722,-1.91786 c 1.96233,-6.52005 4.27411,-16.17967 4.27713,-17.87171 10e-4,-0.60528 -0.004,-0.60442 -1.15942,0.19042 -4.21911,2.90282 -8.13763,2.55802 -11.82461,-1.04049 -2.8289,-2.76102 -4.48838,-8.46826 -3.73973,-12.86162 0.17393,-1.02068 0.14222,-1.47643 -0.12848,-1.84663 -0.478,-0.6537 -0.25304,-3.97371 0.31152,-4.59755 0.55961,-0.61835 0.51384,-0.85102 -0.39153,-1.99028 -0.61207,-0.7702 -0.793747,-1.26696 -0.793747,-2.17044 0,-0.6444 -0.142066,-1.4317 -0.315701,-1.749555 -0.279017,-0.510767 -0.425612,-1.920322 -0.548378,-5.272825 -0.0289,-0.789279 0.140713,-1.173351 0.834123,-1.888771 l 0.870403,-0.89803 -0.928479,-2.609146 c -1.647095,-4.628528 -1.654123,-4.670351 -0.94587,-5.628312 0.835327,-1.129842 1.129079,-1.172742 7.017739,-1.024887 6.16856,0.154879 5.68556,-0.131308 7.25985,4.301633 1.24892,3.516749 1.33485,3.649487 1.76011,2.718982 0.4918,-1.076095 2.66784,-3.270491 3.8817,-3.914441 0.65509,-0.347523 1.24712,-0.846209 1.31563,-1.108194 0.0685,-0.261986 0.67097,-0.718037 1.3388,-1.01345 0.66783,-0.295412 1.21424,-0.714094 1.21424,-0.930405 0,-0.61101 1.3189,-3.06575 1.90001,-3.536307 0.5129,-0.415321 0.50658,-0.447884 -0.39749,-2.047345 -2.02782,-3.587578 -2.41724,-4.930304 -2.44147,-8.418084 -0.0304,-4.37592 0.007,-4.207449 -1.03848,-4.705903 -0.56829,-0.270997 -0.98319,-0.693658 -1.08702,-1.10734 -0.0957,-0.381375 -0.3578,-0.669052 -0.60953,-0.669052 -1.45849,0 -2.12153,-1.725676 -0.95637,-2.489118 0.60004,-0.39316 0.65704,-0.58852 0.61517,-2.108226 l -0.0461,-1.67491 -0.7525,0.424148 c -1.96508,1.107622 -1.383,-2.179556 0.59943,-3.385143 l 0.78393,-0.476737 -1.51758,-0.899692 c -6.97305,-4.133966 -1.97926,-12.640291 8.12305,-13.836655 0.65484,-0.07755 2.6789,-0.342175 4.49791,-0.588057 8.24499,-1.114507 12.26757,-0.413549 17.16889,2.991773 l 1.69076,1.174702 1.61392,-0.860213 c 0.88766,-0.473117 2.09135,-0.898067 2.67487,-0.944332 0.58351,-0.04627 2.07297,-0.432718 3.3099,-0.85878 4.74747,-1.635275 12.4947,-1.809469 13.98962,-0.314552 0.25383,0.253833 1.2693,0.660855 2.2566,0.904496 3.07813,0.759603 6.2643,2.618735 7.28413,4.250299 0.2859,0.457393 1.17305,1.529704 1.97144,2.382911 2.23239,2.385669 4.56995,7.576839 3.41182,7.576839 -0.17139,0 -0.1768,0.436126 -0.0156,1.256771 0.29195,1.486151 -0.0642,2.693829 -0.85538,2.900733 -0.28929,0.07565 -0.52598,0.281498 -0.52598,0.457441 0,0.919006 -2.08201,1.904111 -2.52148,1.19304 -0.11818,-0.191225 -0.28221,-0.18552 -0.52787,0.01836 -0.42142,0.349748 -1.29805,-0.0254 -1.54142,-0.659622 -0.0853,-0.222324 -0.33439,-0.404225 -0.5535,-0.404225 -0.45452,0 -1.20573,-1.300837 -1.20573,-2.087912 0,-0.606364 -0.41344,-0.959215 -0.65879,-0.562237 -0.31479,0.509342 -0.88516,0.267084 -1.2357,-0.524851 -0.19324,-0.436562 -0.5548,-0.79375 -0.80346,-0.79375 -0.24866,0 -0.82397,-0.462732 -1.27847,-1.028295 -0.54105,-0.673256 -0.98452,-0.986936 -1.28443,-0.908511 -0.25193,0.06588 -0.74396,-0.11172 -1.09339,-0.394676 -0.50559,-0.409403 -0.73365,-0.453506 -1.11675,-0.215969 -0.38202,0.236866 -0.7014,0.178462 -1.54697,-0.282879 -0.58607,-0.319757 -1.22366,-0.520713 -1.41688,-0.446566 -0.19322,0.07415 -0.76941,-0.03989 -1.28043,-0.253405 -0.62737,-0.262133 -1.01617,-0.301167 -1.19715,-0.12019 -0.31511,0.315111 -1.66272,-0.07061 -3.54909,-1.015836 -1.48103,-0.742116 -1.53015,-0.748519 -1.53015,-0.199517 0,0.330859 -0.20653,0.401712 -0.92605,0.317712 -1.13587,-0.132606 -1.16045,0.157628 -0.11632,1.373132 4.49336,5.230865 5.47794,7.861628 3.85826,10.309138 -1.28467,1.941269 -3.94968,3.184612 -6.82597,3.184612 -0.9236,0 -1.0452,0.0647 -0.8702,0.463021 0.52791,1.201634 0.43561,2.343515 -0.25588,3.165295 -0.37657,0.447535 -0.68468,0.995733 -0.68468,1.218224 0,0.735094 -1.31804,1.987222 -2.58721,2.457825 -0.68708,0.254768 -1.56528,0.68004 -1.95155,0.94505 -0.38626,0.265009 -0.83275,0.481835 -0.99218,0.481835 -0.39279,0 -0.36606,0.401156 0.0497,0.746218 0.20885,0.173328 0.48725,0.1906 0.72306,0.04485 1.64614,-1.017368 8.46234,1.037072 8.46234,2.550597 0,0.182737 0.25129,0.758155 0.55842,1.278702 0.53562,0.907812 0.56001,1.469938 0.1267,2.920254 -0.12917,0.432353 0.19305,0.761542 1.7612,1.799288 5.63035,3.725953 6.53995,4.4205 6.71792,5.129583 0.099,0.394295 0.58454,1.246963 1.07906,1.894816 2.19429,2.87468 2.84488,5.275924 2.62732,9.697146 -0.38575,7.839377 -3.04193,16.492437 -6.11012,19.905007 -1.19876,1.33331 -1.20425,1.34828 -1.20393,3.28491 7.9e-4,4.51467 1.35258,12.98935 3.09514,19.40347 0.51463,1.89426 0.99228,3.69748 1.06145,4.00714 0.15395,0.68919 -0.96237,1.60745 -3.19892,2.63138 -1.31357,0.60137 -1.51055,0.78293 -1.37497,1.2673 3.11273,11.12122 2.91167,14.16494 -1.24362,18.82708 -1.23203,1.38231 -1.34593,1.61818 -1.28216,2.65521 0.0535,0.86994 -0.0627,1.27082 -0.49306,1.70119 -0.82055,0.82056 -0.54317,5.83027 0.54225,9.79335 1.10758,4.04398 1.25146,5.63815 1.28794,14.27089 0.0369,8.73803 0.0361,8.73059 1.07333,9.49746 0.91961,0.67989 1.21107,1.84182 0.76881,3.06488 -0.41602,1.15047 0.0504,2.99673 1.66047,6.57242 2.60379,5.78266 -0.34177,8.10315 -8.63136,6.79971 z"
         id="path43" /></clipPath></defs><g
     inkscape:label="Layer 1"
     inkscape:groupmode="layer"
     id="layer1"
     transform="translate(-116.46028,-35.808852)"><image
       width="270.93332"
       height="270.93332"
       preserveAspectRatio="none"
       style="image-rendering:optimizeQuality"
       xlink:href="Gemini_Generated_Image_lpi3ohlpi3ohlpi3.png"
       id="image1"
       x="7.9000072"
       y="-5.6666594"
       clip-path="url(#clipPath42)"
       transform="translate(17.966667,-0.73333333)" /></g></svg>
